<?xml version="1.0" encoding="UTF-8"?><svg id="Ebene_1" xmlns="http://www.w3.org/2000/svg" viewBox="0 0 366.74 233.85"><defs><style>.cls-1{fill:#fff;}.cls-2{fill:#acd4f7;}.cls-3{fill:#7006a3;}.cls-4{fill:#27e9b7;}.cls-5{fill:#3b0089;}.cls-6{fill:#5f98ff;}.cls-7{fill:#51aeb6;}.cls-8{opacity:.13;}</style></defs><g><path class="cls-5" d="m324.16,41.65c.11,4.13,2.72,8.31,6.51,9.61,2.06.71,4.28.57,6.38,1.11,2.1.54,4.3,2.14,4.42,4.39.03.57-.08,1.15.06,1.71.36,1.5,2.11,2,3.48,2.6,7.23,3.18,3.53,11.08-3.82,13.75-3.28,1.19-4.72,1.4-8.22.89-3.46-.5-6.66-2.48-9.16-5.11-2.49-2.62-4.32-5.86-5.79-9.21-1.69-3.86-2.95-8.13-2.21-12.22.73-4.09,3.98-7.82,8.36-7.53Z"/><path d="m335.93,76.28c-.87,0-1.82-.09-3.01-.26-3.28-.47-6.6-2.32-9.33-5.2-2.22-2.34-4.13-5.38-5.85-9.3-2.16-4.93-2.87-8.86-2.23-12.39.72-4.01,4-8.09,8.68-7.78.16.01.28.14.28.3.11,4.19,2.76,8.12,6.3,9.33,1.12.38,2.32.52,3.48.64.95.1,1.93.21,2.88.45,2.15.55,4.52,2.24,4.65,4.67.01.22,0,.44,0,.65-.01.35-.02.69.05,1,.28,1.14,1.51,1.65,2.71,2.14.2.08.4.17.6.25,2.71,1.19,4.17,3.17,4.09,5.56-.11,3.45-3.45,7.13-7.93,8.76-2.18.79-3.57,1.17-5.36,1.17Zm-12.25-34.34c-4.08,0-6.93,3.68-7.58,7.29-.61,3.4.09,7.23,2.19,12.04,1.69,3.85,3.56,6.84,5.73,9.12,2.64,2.78,5.83,4.56,8.98,5.02,3.54.51,4.91.27,8.08-.88,4.25-1.55,7.42-5,7.52-8.2.07-2.16-1.22-3.88-3.72-4.98-.19-.08-.39-.16-.59-.25-1.27-.53-2.72-1.12-3.07-2.56-.1-.4-.08-.79-.07-1.17,0-.21.01-.4,0-.6-.12-2.12-2.25-3.62-4.19-4.11-.91-.23-1.87-.34-2.8-.44-1.19-.13-2.43-.27-3.61-.67-3.69-1.27-6.48-5.28-6.7-9.61-.06,0-.12,0-.19,0Z"/></g><g><path class="cls-5" d="m305.55,42.53c-.7-.82-2.47-.24-2.42.79.11,2.47-.25,4.76-2.13,7.4-.93,1.3-2.17,2.49-2.98,3.83-.96,1.59-1.25,3.32-1.32,5-.13,3.17.58,6.42,3.08,8.69,2.5,2.26,7.12,3.24,10.89,1.62,3.31-1.42,5.19-4.45,5.44-7.24.24-2.79-.87-5.41-2.09-7.9-2.29-4.69-5.18-8.35-8.46-12.19Z"/><path class="cls-5" d="m306.61,70.96c-2.62,0-5.26-.87-7.05-2.49-2.27-2.05-3.34-5.06-3.18-8.93.09-2.11.52-3.74,1.36-5.15.48-.8,1.12-1.55,1.73-2.27.43-.51.88-1.04,1.27-1.58,1.98-2.77,2.17-5.1,2.08-7.21-.03-.57.37-1.09,1.03-1.35.61-.24,1.45-.23,1.94.35h0c3.63,4.26,6.32,7.79,8.5,12.26,1.21,2.48,2.37,5.14,2.12,8.06-.28,3.21-2.48,6.15-5.62,7.49-1.29.55-2.73.82-4.17.82Zm-1.99-28.51c-.19,0-.38.04-.55.1-.32.13-.65.39-.64.76.1,2.22-.1,4.67-2.19,7.59-.4.56-.85,1.1-1.3,1.62-.6.71-1.22,1.43-1.67,2.19-.79,1.31-1.2,2.86-1.28,4.86-.15,3.68.85,6.52,2.98,8.45,2.21,2.01,6.67,3.24,10.56,1.57,2.93-1.26,4.99-4,5.25-6.99.24-2.76-.89-5.34-2.06-7.74-2.15-4.41-4.82-7.91-8.41-12.13h0c-.17-.2-.43-.28-.7-.28Z"/></g><g><path class="cls-1" d="m312.43,64.73c0-2.97-.31-5.93-.76-9.31,1.18-.64,2.46-1.1,3.77-1.35.59-.12,1.26-.17,1.73.17.29.22.46.55.61.88,1.04,2.23,2.08,4.47,3.12,6.7.08.17.16.35.16.54,0,.27-.19.51-.38.72-1.97,2.19-5.45,2.98-8.24,1.65Z"/><path d="m315.39,65.69c-1.06,0-2.12-.22-3.09-.69-.11-.05-.17-.16-.17-.28,0-2.9-.3-5.8-.76-9.27-.02-.13.05-.25.16-.31,1.21-.66,2.51-1.12,3.86-1.38.61-.12,1.39-.2,1.97.22.36.27.55.67.7,1l3.12,6.7c.09.18.19.41.18.68-.01.37-.24.67-.46.92-1.4,1.56-3.45,2.41-5.51,2.41Zm-2.65-1.16c2.56,1.12,5.84.43,7.71-1.65.15-.16.3-.35.3-.53,0-.12-.06-.27-.13-.4l-3.12-6.7c-.13-.28-.27-.59-.51-.76-.39-.29-1-.21-1.49-.12-1.22.24-2.4.65-3.5,1.22.44,3.32.73,6.13.74,8.94Z"/></g><path class="cls-1" d="m349.16,89.45c-1.33-5.45-6.96-18.99-11.67-23.6-3.55-3.48-11.81-4.81-16.97-5.15-.87,2.15-3.36,4.54-5.6,4.29-1.17-.13-2.29-.96-2.99-2.22-4.02,2.04-8.12,4.14-11.26,7.5-4.49,4.79-6.56,12.49-8.44,19.23,4.46-.19,8.49.27,12.95.08,2.39-.1,5.31-.34,7.7-.34,7.75,0,37.8,6.48,36.28.2Z"/><g><path class="cls-1" d="m168.22,153.49c-.88.3-1.22,3.36.05,5.48,1,1.67,3.03,2.83,3.74,2.29.81-.63-.16-3.52-1.28-5.35-.31-.5-1.67-2.71-2.51-2.42Z"/><path d="m171.55,161.7c-.1,0-.21-.01-.33-.03-1.08-.21-2.46-1.3-3.21-2.54-1-1.66-1.07-3.83-.63-5.03.17-.48.43-.79.74-.9h0c.72-.25,1.66.58,2.87,2.55.97,1.58,2.33,4.9,1.21,5.75-.17.13-.39.2-.65.2Zm-3.23-7.92h0c-.1.03-.24.19-.36.53-.39,1.08-.28,3.07.58,4.51.73,1.22,2,2.1,2.8,2.25.22.04.4.02.49-.05.55-.42-.16-3.01-1.36-4.95-1.5-2.43-2.09-2.31-2.15-2.29Z"/></g><g><g><rect class="cls-1" x="173.19" y="93.27" width="193.25" height="86.46"/><path d="m366.44,180.04h-193.25c-.17,0-.31-.14-.31-.31v-86.46c0-.17.14-.31.31-.31h193.25c.17,0,.31.14.31.31v86.46c0,.17-.14.31-.31.31Zm-192.94-.61h192.64v-85.85h-192.64v85.85Z"/></g><g><rect class="cls-1" x="173.19" y="88.93" width="193.25" height="7.48"/><path d="m366.44,96.71h-193.25c-.17,0-.31-.14-.31-.31v-7.48c0-.17.14-.31.31-.31h193.25c.17,0,.31.14.31.31v7.48c0,.17-.14.31-.31.31Zm-192.94-.61h192.64v-6.87h-192.64v6.87Z"/></g><g class="cls-8"><path d="m366.01,96.75c-.15-.12-.64-.15-.49-.12-.31-.03-.62,0-.93-.04-1.26-.06-2.52-.09-3.79-.12-3.79-.13-7.57.3-11.37.24-1.93.02-3.86.08-5.79,0-1.49-.01-2.98-.16-4.47-.2-4.32.03-8.63-.31-12.94-.21-3.75.05-7.49.02-11.24-.06-2.99-.03-5.98,0-8.97-.02-2.49-.09-4.98.16-7.47.15-5.46.08-10.92.09-16.38-.07-1.99-.03-3.98-.1-5.97.03-1.67.09-3.34.03-5.01.06-1.85,0-3.7-.02-5.55-.03-2.18-.09-4.36-.14-6.54-.06-1.78,0-3.55.14-5.33.19-1.64,0-3.27.03-4.91.02-1.21-.08-72.42-.11-73.64-.06-.64.05-1.38-.16-1.88.32-.65.64-.2,1.85.77,1.83,1.44.05,2.87-.01,4.31.12,2.11.07,74.22.08,76.32-.02,2.58-.16,5.17-.26,7.76-.25,2,.04,4,.11,6,.1,2.19.04,4.39.04,6.58.03,1.42-.04,2.85-.14,4.27-.1,3.97.07,7.94.22,11.92.15,4.01-.01,8.03.06,12.04-.16,3.58.02,7.16,0,10.74.05,1.27.03,2.54.04,3.82.05,4.97,2.55,10.09,4.85,15.49,6.33,2.9.8,5.86,1.55,8.88,1.66.91.02,1.83-.05,2.71-.31.85-.24,1.47-.58,1.85-.71,1.31-.5,2.59-1.17,3.58-2.19.47-.54.83-1.16,1.12-1.8.37-.76.54-1.58.74-2.4.02-.14.05-.28.07-.42.14,0,.28,0,.42-.01,1.16-.04,2.32-.2,3.48-.23,3.02-.12,6.04-.04,9.06-.01.34.02.69,0,.94-.26.42-.4.33-1.15-.19-1.43Zm-15.6,3.1c-.12.74-.83,1.99-1.03,2.24-1.16,1.4-4.19,2.45-5.7,2.7-2.35.17-3.58-.12-5.74-.5-2.72-.55-5.4-1.32-8.04-2.16-3.23-1.15-5.7-2.16-8.69-3.6,2.93-.01,5.87-.05,8.8-.06,3.23.08,6.45.16,9.68.14,2.42.1,4.84.24,7.26.18,1.22-.04,2.44-.05,3.66-.07-.04.26-.06.51-.18,1.12Z"/></g></g><g><path d="m256.59,160.62c-.06,0-.13-.02-.19-.06-.13-.1-.16-.29-.06-.43l10.81-14.13c.05-.07.12-.11.21-.12.08,0,.16.01.23.07l6.97,5.64,15.43-27.28c.04-.08.12-.13.21-.15.09-.02.18,0,.25.06l7.82,6.17,8.55-16.21c.05-.09.14-.15.24-.16.1-.01.2.03.27.11l11.23,13.23,3.28-2.86c.07-.06.16-.08.24-.07.09.01.17.06.21.14l11.55,17.69,16.44-19.83c.11-.13.3-.15.43-.04.13.11.15.3.04.43l-16.7,20.15c-.06.07-.16.11-.25.11-.1,0-.19-.06-.24-.14l-11.59-17.75-3.25,2.83c-.06.05-.14.08-.22.07-.08,0-.16-.04-.21-.11l-11.14-13.12-8.51,16.13c-.04.08-.12.14-.21.16-.09.02-.18,0-.25-.06l-7.83-6.18-15.43,27.28c-.04.08-.12.13-.21.15-.09.02-.18,0-.25-.06l-7.01-5.67-10.62,13.88c-.06.08-.15.12-.24.12Z"/><path d="m267.5,167.99c-.17,0-.3-.14-.31-.3v-2.44c0-.17.13-.31.3-.31h0c.17,0,.3.14.31.3v2.44c0,.17-.13.31-.3.31h0Zm-.02-4.89c-.17,0-.3-.14-.31-.3v-2.44c0-.17.13-.31.3-.31h0c.17,0,.3.14.31.3v2.44c0,.17-.13.31-.3.31h0Zm-.02-4.89c-.17,0-.3-.14-.31-.3v-2.44c0-.17.13-.31.3-.31h0c.17,0,.3.14.31.3v2.44c0,.17-.13.31-.3.31h0Zm-.02-4.89c-.17,0-.3-.14-.31-.3v-2.44c0-.17.13-.31.3-.31h0c.17,0,.3.14.31.3v2.44c0,.17-.13.31-.3.31h0Zm-.02-4.89c-.17,0-.3-.14-.31-.3v-1.84c0-.17.13-.31.3-.31h0c.17,0,.3.14.31.3v1.84c0,.17-.13.31-.3.31h0Z"/><path d="m290.3,167.54c-.17,0-.31-.14-.31-.3v-2.44c0-.17.13-.31.3-.31h0c.17,0,.31.14.31.3v2.44c0,.17-.13.31-.3.31h0Zm0-4.89c-.17,0-.31-.14-.31-.3v-2.44c0-.17.13-.31.3-.31h0c.17,0,.31.14.31.3v2.44c0,.17-.13.31-.3.31h0Zm0-4.89c-.17,0-.31-.14-.31-.3v-2.44c0-.17.13-.31.3-.31h0c.17,0,.31.14.31.3v2.44c0,.17-.13.31-.3.31h0Zm0-4.89c-.17,0-.31-.14-.31-.3v-2.44c0-.17.13-.31.3-.31h0c.17,0,.31.14.31.3v2.44c0,.17-.13.31-.3.31h0Zm0-4.89c-.17,0-.31-.14-.31-.3v-2.44c0-.17.13-.31.3-.31h0c.17,0,.31.14.31.3v2.44c0,.17-.13.31-.3.31h0Zm0-4.89c-.17,0-.31-.14-.31-.3v-2.44c0-.17.13-.31.3-.31h0c.17,0,.31.14.31.3v2.44c0,.17-.13.31-.3.31h0Zm0-4.89c-.17,0-.31-.14-.31-.3v-2.44c0-.17.13-.31.3-.31h0c.17,0,.31.14.31.3v2.44c0,.17-.13.31-.3.31h0Zm0-4.89c-.17,0-.31-.14-.31-.3v-2.44c0-.17.13-.31.3-.31h0c.17,0,.31.14.31.3v2.44c0,.17-.13.31-.3.31h0Zm0-4.89c-.17,0-.31-.14-.31-.3v-2.44c0-.17.13-.31.3-.31h0c.17,0,.31.14.31.3v2.44c0,.17-.13.31-.3.31h0Z"/><path d="m307.54,167.54c-.17,0-.31-.14-.31-.31v-2.44c0-.17.13-.31.3-.31h0c.17,0,.31.14.31.31v2.44c0,.17-.13.31-.3.31h0Zm0-4.89c-.17,0-.31-.14-.31-.31v-2.44c0-.17.13-.31.3-.31h0c.17,0,.31.14.31.31v2.44c0,.17-.13.31-.3.31h0Zm0-4.89c-.17,0-.31-.14-.31-.31v-2.44c0-.17.13-.31.3-.31h0c.17,0,.31.14.31.31v2.44c0,.17-.13.31-.3.31h0Zm0-4.89c-.17,0-.31-.14-.31-.31v-2.44c0-.17.13-.31.3-.31h0c.17,0,.31.14.31.31v2.44c0,.17-.13.31-.3.31h0Zm0-4.89c-.17,0-.31-.14-.31-.31v-2.44c0-.17.13-.31.3-.31h0c.17,0,.31.14.31.31v2.44c0,.17-.13.31-.3.31h0Zm0-4.89c-.17,0-.31-.14-.31-.31v-2.44c0-.17.13-.31.3-.31h0c.17,0,.31.14.31.31v2.44c0,.17-.13.31-.3.31h0Zm0-4.89c-.17,0-.31-.14-.31-.3v-2.44c0-.17.13-.31.3-.31h0c.17,0,.31.14.31.31v2.44c0,.17-.13.31-.3.31h0Zm0-4.89c-.17,0-.31-.14-.31-.3v-2.44c0-.17.13-.31.3-.31h0c.17,0,.31.14.31.31v2.44c0,.17-.13.31-.3.31h0Zm0-4.89c-.17,0-.31-.14-.31-.3v-2.44c0-.17.13-.31.3-.31h0c.17,0,.31.14.31.31v2.44c0,.17-.13.31-.3.31h0Zm0-4.89c-.17,0-.31-.14-.31-.3v-2.44c0-.17.13-.31.3-.31h0c.17,0,.31.14.31.3v2.44c0,.17-.13.31-.3.31h0Zm0-4.89c-.17,0-.31-.14-.31-.3v-2.44c0-.17.13-.31.3-.31h0c.17,0,.31.14.31.3v2.44c0,.17-.13.31-.3.31h0Z"/><path d="m322.14,167.54c-.17,0-.31-.14-.31-.3v-2.44c0-.17.13-.31.3-.31h0c.17,0,.31.14.31.3v2.44c0,.17-.13.31-.3.31h0Zm0-4.89c-.17,0-.31-.14-.31-.3v-2.44c0-.17.13-.31.3-.31h0c.17,0,.31.14.31.3v2.44c0,.17-.13.31-.3.31h0Zm0-4.89c-.17,0-.31-.14-.31-.3v-2.44c0-.17.13-.31.3-.31h0c.17,0,.31.14.31.3v2.44c0,.17-.13.31-.3.31h0Zm0-4.89c-.17,0-.31-.14-.31-.3v-2.44c0-.17.13-.31.3-.31h0c.17,0,.31.14.31.3v2.44c0,.17-.13.31-.3.31h0Zm0-4.89c-.17,0-.31-.14-.31-.3v-2.44c0-.17.13-.31.3-.31h0c.17,0,.31.14.31.3v2.44c0,.17-.13.31-.3.31h0Zm0-4.89c-.17,0-.31-.14-.31-.3v-2.44c0-.17.13-.31.3-.31h0c.17,0,.31.14.31.3v2.44c0,.17-.13.31-.3.31h0Zm0-4.89c-.17,0-.31-.14-.31-.3v-2.44c0-.17.13-.31.3-.31h0c.17,0,.31.14.31.3v2.44c0,.17-.13.31-.3.31h0Zm0-4.89c-.17,0-.31-.14-.31-.3v-2.44c0-.17.13-.31.3-.31h0c.17,0,.31.14.31.3v2.44c0,.17-.13.31-.3.31h0Zm0-4.89c-.17,0-.31-.14-.31-.3v-2.44c0-.17.13-.31.3-.31h0c.17,0,.31.14.31.3v2.44c0,.17-.13.31-.3.31h0Z"/><path d="m350.57,167.99c-.17,0-.31-.14-.31-.31v-2.44c0-.17.13-.31.3-.31h0c.17,0,.31.14.31.3v2.44c0,.17-.13.31-.3.31h0Zm0-4.89c-.17,0-.31-.14-.31-.31v-2.44c0-.17.13-.31.3-.31h0c.17,0,.31.14.31.3v2.44c0,.17-.13.31-.3.31h0Zm0-4.89c-.17,0-.31-.14-.31-.31v-2.44c0-.17.13-.31.3-.31h0c.17,0,.31.14.31.3v2.44c0,.17-.13.31-.3.31h0Zm0-4.89c-.17,0-.31-.14-.31-.31v-2.44c0-.17.13-.31.3-.31h0c.17,0,.31.14.31.3v2.44c0,.17-.13.31-.3.31h0Zm0-4.89c-.17,0-.31-.14-.31-.31v-2.44c0-.17.13-.31.3-.31h0c.17,0,.31.14.31.3v2.44c0,.17-.13.31-.3.31h0Zm0-4.89c-.17,0-.31-.14-.31-.31v-2.44c0-.17.13-.31.3-.31h0c.17,0,.31.14.31.31v2.44c0,.17-.13.31-.3.31h0Zm0-4.89c-.17,0-.31-.14-.31-.3v-2.44c0-.17.13-.31.3-.31h0c.17,0,.31.14.31.3v2.44c0,.17-.13.31-.3.31h0Zm0-4.89c-.17,0-.31-.14-.31-.3v-2.44c0-.17.13-.31.3-.31h0c.17,0,.31.14.31.3v2.44c0,.17-.13.31-.3.31h0Zm0-4.89c-.17,0-.31-.14-.31-.3v-2.44c0-.17.13-.31.3-.31h0c.17,0,.31.14.31.3v2.44c0,.17-.13.31-.3.31h0Zm0-4.89c-.17,0-.31-.14-.31-.3v-1.18c0-.17.13-.31.3-.31h0c.17,0,.31.14.31.3v1.18c0,.17-.13.31-.3.31h0Z"/><path d="m354.17,167.99h-99.78c-.17,0-.31-.14-.31-.31s.14-.31.31-.31h99.78c.17,0,.31.14.31.31s-.14.31-.31.31Z"/><path d="m310.49,166.61s-.05,0-.07-.03l-1.66-1.58s-.04-.1,0-.14c.04-.04.1-.04.14,0l1.66,1.58s.04.1,0,.14c-.02.02-.05.03-.07.03Z"/><path d="m313.11,166.65s-.04,0-.06-.02c-1.58-1.18-3.11-2.47-4.57-3.83-.04-.04-.04-.1,0-.14.04-.04.1-.04.14,0,1.45,1.35,2.98,2.63,4.55,3.81.04.03.05.1.02.14-.02.03-.05.04-.08.04Z"/><path d="m315.17,166.61s-.05,0-.07-.02c-2.19-1.89-4.4-3.84-6.55-5.79-.04-.04-.04-.1,0-.14.04-.04.1-.04.14,0,2.15,1.95,4.35,3.89,6.54,5.78.04.04.05.1.01.14-.02.02-.05.04-.08.04Z"/><path d="m317.25,166.66s-.05,0-.07-.02c-2.94-2.53-5.85-5.19-8.65-7.9-.04-.04-.04-.1,0-.14.04-.04.1-.04.14,0,2.79,2.71,5.7,5.36,8.64,7.89.04.04.05.1.01.14-.02.02-.05.04-.08.04Z"/><path d="m319.11,166.66s-.05,0-.07-.03c-3.34-3.37-6.83-6.66-10.36-9.78-.04-.04-.05-.1,0-.14.04-.04.1-.05.14,0,3.54,3.13,7.03,6.42,10.37,9.79.04.04.04.1,0,.14-.02.02-.05.03-.07.03Z"/><path d="m321.39,166.45s-.05,0-.07-.03l-12.74-12.31s-.04-.1,0-.14c.04-.04.1-.04.14,0l12.74,12.31s.04.1,0,.14c-.02.02-.05.03-.07.03Z"/><path d="m320.92,163.54s-.05,0-.07-.03c-4.25-3.76-8.41-7.76-12.37-11.89-.04-.04-.04-.1,0-.14.04-.04.1-.04.14,0,3.95,4.12,8.11,8.11,12.35,11.87.04.04.05.1,0,.14-.02.02-.05.03-.08.03Z"/><path d="m320.7,161.06s-.05,0-.07-.03l-12.11-11.77s-.04-.1,0-.14c.04-.04.1-.04.14,0l12.11,11.77s.04.1,0,.14c-.02.02-.05.03-.07.03Z"/><path d="m320.62,158.38s-.04,0-.06-.02c-1.49-1.18-2.88-2.53-4.23-3.84-2.56-2.49-5.2-5.06-7.73-7.69-.04-.04-.04-.1,0-.14.04-.04.11-.04.14,0,2.52,2.62,5.16,5.19,7.72,7.68,1.34,1.31,2.73,2.66,4.21,3.83.04.03.05.1.02.14-.02.03-.05.04-.08.04Z"/><path d="m320.63,156.19s-.05,0-.07-.02c-4.15-3.57-8.18-7.41-11.98-11.41-.04-.04-.04-.11,0-.14.04-.04.11-.04.14,0,3.79,4,7.82,7.83,11.96,11.4.04.04.05.1.01.14-.02.02-.05.04-.08.04Z"/><path d="m320.62,154.03s-.05,0-.07-.03c-4.05-3.8-8.09-7.74-12.01-11.72-.04-.04-.04-.1,0-.14.04-.04.1-.04.14,0,3.92,3.97,7.96,7.91,12.01,11.71.04.04.04.1,0,.14-.02.02-.05.03-.07.03Z"/><path d="m320.57,151.72s-.05,0-.07-.03c-4.07-3.62-8.1-7.4-11.99-11.25-.04-.04-.04-.1,0-.14.04-.04.1-.04.14,0,3.88,3.84,7.91,7.62,11.98,11.24.04.04.05.1,0,.14-.02.02-.05.03-.08.03Z"/><path d="m320.58,149.46s-.05,0-.07-.03l-11.98-11s-.04-.1,0-.14c.04-.04.1-.04.14,0l11.98,11s.04.1,0,.14c-.02.02-.05.03-.07.03Z"/><path d="m320.72,147.37s-.05,0-.07-.03l-12.23-11.1s-.04-.1,0-.14c.04-.04.1-.04.14,0l12.23,11.1s.04.1,0,.14c-.02.02-.05.03-.08.03Z"/><path d="m320.64,144.82s-.05,0-.07-.03c-4.1-3.6-8.19-7.32-12.17-11.07-.04-.04-.04-.1,0-.14.04-.04.1-.04.14,0,3.98,3.75,8.07,7.47,12.16,11.06.04.04.05.1,0,.14-.02.02-.05.03-.08.03Z"/><path d="m320.74,142.8s-.05,0-.07-.02c-4.2-3.53-8.35-7.27-12.32-11.09-.04-.04-.04-.1,0-.14.04-.04.1-.04.14,0,3.97,3.82,8.11,7.55,12.31,11.08.04.04.05.1.01.14-.02.02-.05.04-.08.04Z"/><path d="m320.71,140.59s-.04,0-.06-.02c-4.27-3.31-8.38-6.96-12.21-10.85-.04-.04-.04-.1,0-.14.04-.04.1-.04.14,0,3.82,3.89,7.93,7.53,12.19,10.83.04.03.05.1.02.14-.02.03-.05.04-.08.04Z"/><path d="m320.56,138.48s-.04,0-.06-.02c-4.21-3.31-8.26-6.95-12.05-10.82-.04-.04-.04-.1,0-.14.04-.04.1-.04.14,0,3.78,3.86,7.83,7.49,12.03,10.8.04.03.05.1.02.14-.02.03-.05.04-.08.04Z"/><path d="m320.65,136.28s-.05,0-.07-.02c-4.12-3.44-8.2-7.04-12.14-10.73-.04-.04-.04-.1,0-.14.04-.04.1-.04.14,0,3.93,3.68,8.01,7.28,12.13,10.72.04.04.05.1.01.14-.02.02-.05.04-.08.04Z"/><path d="m320.51,133.69s-.05,0-.07-.02c-1.89-1.59-3.77-3.18-5.76-4.87-2.06-1.74-4.19-3.55-6.4-5.4-.04-.04-.05-.1-.01-.14.04-.04.1-.05.14-.01,2.21,1.85,4.34,3.66,6.4,5.4,1.99,1.69,3.87,3.28,5.76,4.86.04.04.05.1.01.14-.02.02-.05.04-.08.04Z"/><path d="m320.4,131.57s-.05,0-.07-.02c-3.29-2.83-7.64-6.54-12.08-10.11-.04-.04-.05-.1-.02-.14.04-.04.1-.05.14-.02,4.44,3.57,8.79,7.28,12.09,10.11.04.04.05.1.01.14-.02.02-.05.04-.08.04Z"/><path d="m315.07,124.97s-.05,0-.07-.02c-2.3-1.91-4.3-3.61-6.12-5.19-.04-.04-.05-.1-.01-.14.04-.04.1-.05.14,0,1.82,1.58,3.82,3.28,6.11,5.19.04.04.05.1.01.14-.02.02-.05.04-.08.04Z"/><path d="m320.57,129.47s-.04,0-.06-.02c-.38-.3-.75-.6-1.13-.91-.04-.04-.05-.1-.02-.14.04-.04.1-.05.14-.02.37.3.75.6,1.13.9.04.03.05.1.02.14-.02.03-.05.04-.08.04Z"/></g><g><path class="cls-1" d="m152.8,140.85c-.5,3.37-.72,6.78-.63,10.18,0,.28.01.58-.11.83-.13.26-.38.43-.63.59-1.72,1.04-3.84,1.52-5.78,1.01-1.94-.51-3.64-2.11-3.82-4.26.82-2.77,2.19-6.62,3.25-11.06,2.38,1.05,4.87,1.86,7.73,2.71Z"/><path d="m147.27,153.97c-.59,0-1.16-.07-1.71-.22-2.24-.59-3.87-2.41-4.04-4.53,0-.04,0-.08.01-.11.24-.81.53-1.72.84-2.69.74-2.33,1.66-5.22,2.41-8.35.02-.09.08-.16.16-.2.08-.04.18-.04.26,0,2.27,1.01,4.63,1.78,7.69,2.7.15.04.24.19.21.34-.5,3.34-.71,6.75-.63,10.13,0,.29.02.66-.15.98-.16.32-.46.53-.75.71-1.36.83-2.87,1.26-4.31,1.26Zm-5.14-4.75c.21,2.12,1.94,3.51,3.59,3.94,1.75.46,3.77.1,5.55-.97.2-.12.42-.27.52-.46.09-.19.09-.44.08-.69-.08-3.32.12-6.68.6-9.97-2.82-.85-5.04-1.58-7.18-2.51-.74,3.02-1.62,5.79-2.34,8.04-.3.94-.58,1.83-.82,2.62Z"/></g><g><path class="cls-1" d="m153.63,123.29c.15,3.21,4.42,4.76,4.63,5.57.29,1.16-1.36,2.11-1.32,2.7.1,1.42,1.06,4.67.35,7.22-.35,1.26-1.93,1.52-2.91,1.82-7.21,2.22-13.19-4.62-13.42-7.8-1.77,1.6-3.59-.41-3.67-1.43-.1-1.37,1.02-4.37,3.99-2.1,1.75-5.95-.33-6.13,0-9.2.93-1.33,4.92-2.01,6.27-2.91.24-.16,1-2.05,1.28-2.09.46-.08,3.72,1.78,4.06,2.1.34.32.47.13.75,6.11Z"/><path d="m151.54,141.34c-2.11,0-4.23-.68-6.16-1.99-2.62-1.79-4.26-4.29-4.65-5.99-.63.39-1.33.46-2,.19-.98-.4-1.7-1.43-1.75-2.14-.07-.9.33-2.44,1.42-3.02.54-.29,1.43-.44,2.7.4.93-3.35.55-4.67.19-5.95-.23-.81-.45-1.58-.32-2.78,0-.05.02-.1.05-.14.62-.88,2.29-1.45,3.91-1.99.99-.33,1.92-.65,2.42-.98.08-.09.29-.5.44-.8.49-.96.69-1.3.97-1.35.65-.11,4,1.88,4.32,2.18l.05.04c.4.36.53.48.8,6.28.09,2.04,2.05,3.41,3.34,4.31.72.5,1.19.83,1.28,1.2.22.85-.41,1.58-.86,2.11-.18.21-.46.53-.45.64.02.36.11.85.21,1.42.28,1.67.67,3.96.13,5.9-.35,1.25-1.71,1.63-2.7,1.91-.15.04-.29.08-.42.12-.96.3-1.94.44-2.92.44Zm-10.59-8.84s.08,0,.11.02c.11.04.18.14.19.26.12,1.56,1.82,4.26,4.47,6.06,1.89,1.29,4.92,2.6,8.56,1.47.14-.04.28-.08.43-.13.9-.25,2.02-.56,2.27-1.48.5-1.81.13-4.02-.15-5.64-.1-.59-.19-1.09-.21-1.48-.02-.36.26-.7.6-1.08.41-.48.87-1.02.73-1.56-.05-.15-.6-.54-1.04-.85-1.39-.97-3.49-2.44-3.6-4.78-.24-5.28-.38-5.65-.6-5.85-.02-.02-.04-.03-.06-.05-.32-.31-3.13-1.89-3.75-2.01-.14.17-.4.69-.57,1.02-.34.67-.48.92-.63,1.02-.57.38-1.55.71-2.58,1.06-1.42.48-3.01,1.02-3.56,1.71-.1,1.03.09,1.69.31,2.46.38,1.35.81,2.88-.31,6.7-.03.1-.1.17-.2.2-.1.03-.2.01-.28-.05-.97-.74-1.77-.94-2.4-.6-.8.43-1.15,1.7-1.1,2.44.03.46.57,1.3,1.37,1.62.62.25,1.22.12,1.79-.4.06-.05.13-.08.2-.08Zm6.4-15.56h0Z"/></g><g><path class="cls-1" d="m184.92,152.04c.35-.73,1.28-.88,2.07-.88,2.73-.01,5.47.72,7.85,2.09.3.17.62.4.67.74.03.2-.04.39-.13.57-.55,1.11-1.8,1.36-3.01,1.42-1.21.06-2.4.01-3.51-.5-1.56-.72-3.1-1.69-3.92-3.43Z"/><path d="m191.59,156.3c-.95,0-1.92-.11-2.87-.54-1.41-.65-3.15-1.64-4.07-3.58-.04-.08-.04-.18,0-.26.33-.7,1.12-1.05,2.34-1.06.02,0,.05,0,.07,0,2.77,0,5.52.74,7.93,2.13.22.13.74.43.82.97.04.3-.07.57-.16.74-.64,1.3-2.09,1.53-3.27,1.59-.26.01-.52.02-.78.02Zm-6.32-4.25c.86,1.67,2.42,2.56,3.71,3.15,1.09.5,2.27.52,3.37.47,1.54-.07,2.36-.45,2.76-1.25.08-.17.12-.29.1-.39-.03-.21-.28-.38-.52-.52-2.33-1.34-4.96-2.05-7.63-2.05-.02,0-.04,0-.07,0-.88,0-1.45.2-1.72.59Z"/></g><path d="m151.03,126.2c-.11-.33-.48-.51-.82-.39-.35.11-.54.47-.44.8.11.33.48.51.82.39.35-.11.54-.47.44-.8Z"/><g><path class="cls-1" d="m168,164.46c.98-2.52,2.11-5.24,4.54-6.62.55-.31,1.15-.55,1.64-.94.66-.53,1.05-1.29,1.43-2.02.96-1.89,3.04-5.45,4-7.35.28-.55.1-1.28-.43-1.63-.42-.28-1.72,1.59-2.12,1.89-1.39,1.02-2.33,2.66-3.99,3.19.02-3.04.03-6.07.05-9.11-1.09.46-1.4,1.76-1.6,2.89-.48,2.7-1.07,5.41-2.26,7.9-1.19,2.49-3.01,4.78-5.39,6.4.02,1.5.28,3.05,1.02,4.23s2.04,1.87,3.11,1.19Z"/><path d="m167.09,165.04c-.15,0-.31-.02-.47-.05-.75-.17-1.48-.73-1.99-1.55-.68-1.08-1.04-2.56-1.07-4.38,0-.1.05-.2.13-.26,2.23-1.51,4.05-3.68,5.29-6.28,1.19-2.51,1.78-5.24,2.23-7.82.23-1.32.61-2.62,1.78-3.11.09-.04.2-.03.29.03.09.06.14.15.14.26l-.05,8.66c.78-.36,1.4-.99,2.05-1.66.45-.46.92-.94,1.45-1.33.1-.08.34-.35.56-.61.75-.87,1.4-1.63,1.91-1.29.64.43.88,1.34.53,2.02-.48.95-1.26,2.34-2.01,3.68-.75,1.34-1.52,2.72-2,3.66-.37.73-.79,1.55-1.51,2.12-.35.28-.76.49-1.14.68-.18.09-.37.19-.54.28-2.26,1.28-3.37,3.79-4.4,6.46-.02.06-.07.11-.12.15-.33.21-.7.32-1.08.32Zm.91-.58h0,0Zm-3.83-5.25c.04,1.64.37,2.95.97,3.9.42.67,1.02,1.14,1.61,1.28.35.08.69.03,1-.13,1.06-2.74,2.23-5.31,4.63-6.68.19-.11.38-.2.57-.3.38-.19.73-.37,1.04-.61.62-.49,1-1.25,1.34-1.92.48-.95,1.26-2.34,2.01-3.68.75-1.34,1.52-2.72,2-3.66.2-.4.07-.94-.28-1.21-.25.1-.86.8-1.15,1.15-.31.36-.51.59-.66.7-.49.36-.94.82-1.38,1.26-.78.79-1.58,1.61-2.7,1.97-.09.03-.19.01-.27-.05-.08-.06-.12-.15-.12-.25l.05-8.56c-.61.53-.84,1.5-.99,2.39-.46,2.62-1.06,5.4-2.28,7.98-1.26,2.64-3.11,4.86-5.36,6.42Z"/></g><path class="cls-6" d="m130.35,201.93c-.07,7.63.56,15.24,1.2,22.85.26,3.11.38,5.99,1.01,9.04,0,0,32.69.14,32.42-.22-2.46-9.4-4.62-19.5-6.2-29.09-.04-.27-.1-.55-.28-.75-.17-.17-.41-.24-.64-.31-.97-.27-1.94-.54-2.91-.8-1.33-.37-2.66-.74-4.02-.96-2.07-.35-4.18-.37-6.28-.39-1.81-.02-3.61-.03-5.42-.04-3.27-.02-6.54-.02-8.87.67Z"/><g><path class="cls-1" d="m185.42,153.72c1.28-7.78,2.69-15.53,4.22-23.27.14-.71.32-1.46.68-2.08.29-.5,1.12-.38,1.21.19.52,3.3.23,6.52,0,9.94.52-.53,1.49-.59,2.06-.11.58.47.66,1.4.19,1.96.58-.18,1.28.06,1.6.56.32.5.23,1.2-.21,1.62.53-.3,1.03.46,1.07,1.05.24,3.97-3.73,6.61-4.26,10.56-.07.51-.19,1.54-.52,1.95-.31.39-.84.56-1.34.62-2.22.29-4.96-1.29-4.68-2.99Z"/><path d="m189.57,157.05c-1.37,0-2.87-.58-3.75-1.49-.57-.59-.81-1.24-.71-1.89h0c1.28-7.74,2.7-15.58,4.22-23.28.15-.75.34-1.53.71-2.18.2-.35.61-.53,1.02-.45.4.07.69.37.75.75.48,3.07.27,6.04.05,9.18v.22c.6-.26,1.38-.18,1.89.24.34.28.56.7.6,1.16.02.23,0,.46-.07.68.53.04,1.04.32,1.32.76.28.45.31,1.01.11,1.48.02,0,.04.02.06.03.44.24.71.85.74,1.3.13,2.25-1.03,4.1-2.15,5.89-.92,1.47-1.88,2.99-2.11,4.73v.09c-.11.76-.25,1.6-.59,2.01-.32.39-.84.64-1.54.73-.19.02-.38.04-.57.04Zm-3.85-3.28c-.09.57.24,1.06.54,1.37.88.91,2.48,1.45,3.8,1.28.37-.05.88-.18,1.15-.51.26-.32.38-1.26.44-1.71v-.09c.27-1.87,1.26-3.45,2.21-4.97,1.12-1.79,2.18-3.47,2.06-5.53-.02-.31-.21-.69-.42-.8-.07-.04-.13-.04-.19,0-.13.07-.3.04-.4-.09s-.08-.3.04-.4c.33-.31.4-.85.16-1.23-.25-.39-.8-.58-1.25-.44-.13.04-.27,0-.35-.12-.07-.11-.07-.26.02-.37.17-.21.26-.49.23-.78-.03-.3-.16-.57-.38-.74-.46-.37-1.24-.33-1.65.09-.09.09-.23.12-.34.07-.12-.05-.19-.17-.18-.3l.06-.83c.22-3.11.42-6.05-.05-9.05-.03-.18-.21-.23-.26-.24-.12-.02-.3,0-.38.16-.33.57-.5,1.29-.64,1.99-1.52,7.69-2.94,15.52-4.22,23.26h0Z"/></g><g><path class="cls-1" d="m164.9,156.62c1.06-.99,2.13-1.97,3.19-2.96.02.81.18,2.44,1.15,4.18.98,1.76,2.29,2.76,2.97,3.21-.75,1.13-1,2.69-2.17,3.37-1.15.67-2.65.12-3.63-.78-1.98-1.81-3.16-5.49-1.5-7.03Z"/><path d="m168.9,165.03c-.98,0-1.98-.5-2.7-1.15-1.4-1.28-2.38-3.39-2.39-5.14,0-.99.3-1.8.89-2.34l3.19-2.96c.09-.08.22-.1.33-.06.11.05.18.15.19.27.03.98.24,2.48,1.11,4.04.87,1.57,2.04,2.56,2.87,3.1.07.04.12.11.13.19.02.08,0,.16-.05.23-.25.37-.45.81-.64,1.24-.38.85-.78,1.74-1.63,2.23-.41.24-.85.34-1.29.34Zm-4-8.41l.21.22c-.58.53-.69,1.32-.69,1.89,0,1.57.93,3.54,2.19,4.69.85.78,2.24,1.34,3.27.74.68-.4,1.02-1.15,1.38-1.95.16-.36.33-.72.53-1.07-.86-.61-1.97-1.62-2.82-3.15-.75-1.35-1.04-2.66-1.14-3.67l-2.72,2.52-.21-.22Z"/></g><path class="cls-1" d="m160.6,175.98c5.62,7.95,6.89,9.21,14.32,15.5,2.49,2.11,3.69,1.99,6.94,2.2,2.05-.02,2.77-1.35,4.61-2.56,5.66-3.74,8.72-26.03,9.04-37.12-.83,2.23-2.72,1.91-5.46,1.6-2.2-.25-3.85-1.73-5.14-3.52-1.23,9.33-4.76,16.15-6.79,24.2-4.68-7.39-12.95-19.48-17.18-23.36-4.25-3.89-12.08-4.36-17.94-5.24-3.57-.54-6.56,4.72-8.84,9.08-4.96,9.47-5.8,26.44-7.04,42.03,1.31,5.57,8.76,7.63,12.99,8.35,9.54,1.61,17,.8,20.49-4.86-.3-8.69-.22-14.13-.22-26.23l.22-.05Z"/><path d="m146.16,208.01c-3.55,0-7.03-.52-10.36-1.56,0,0-.02,0-.03-.01-.71-.3-1.38-.56-2.03-.81-.65-.25-1.33-.51-2.05-.82-3.16-1.58-5.07-4.65-4.87-7.83,1.88-30.13,4.3-34.92,7.11-40.47.15-.29.3-.59.45-.89,1.76-3.54,4.03-6.31,6.73-8.25.14-.1.33-.07.43.07.1.14.07.33-.07.43-2.62,1.88-4.82,4.58-6.54,8.03-.15.3-.3.6-.45.89-2.77,5.49-5.17,10.23-7.04,40.23-.18,2.94,1.59,5.78,4.51,7.24.69.3,1.36.55,2.01.8.65.25,1.32.51,2.03.81,6.31,1.97,13.22,2.04,19.97.2,2.52-.84,4.28-2.89,4.46-5.23.11-4.54-.02-9.12-.15-13.55-.11-3.68-.22-7.48-.19-11.26,0-.17.15-.31.31-.3.17,0,.3.14.3.31-.03,3.77.08,7.57.19,11.24.13,4.44.27,9.02.15,13.6-.2,2.59-2.12,4.86-4.89,5.78-3.32.91-6.68,1.36-9.98,1.36Z"/><path d="m181.14,194.02c-7.55,0-16.64-11.55-25.38-24.15-.1-.14-.06-.33.08-.43.14-.1.33-.06.43.08,9.02,12.99,18.39,24.87,25.79,23.82,3.68-.52,6.76-4.36,9.13-11.42,1.32-3.91,3.65-19.88,3.99-27.05-.48.43-1.12.74-1.89.91-2.25.49-4.96-.29-6.37-1.28-.65-.46-1.26-1.03-1.81-1.7-.92,5.27-3.99,14.98-6.05,21.5-.23.73-.45,1.41-.64,2.04-.04.11-.13.2-.25.21-.12.02-.23-.04-.3-.14-.56-.88-1.3-2.08-2.09-3.35-1.94-3.12-4.36-7.01-5.3-8.28-.45-.61-.89-1.22-1.34-1.83-2.98-4.09-5.79-7.95-10-10.93-4.03-2.86-9.67-4.3-16.77-4.3-.17,0-.31-.14-.31-.31s.14-.31.31-.31c7.22,0,12.98,1.49,17.12,4.42,4.29,3.04,7.13,6.94,10.14,11.07.44.61.88,1.22,1.33,1.82.95,1.29,3.28,5.03,5.33,8.32.63,1.02,1.24,1.99,1.74,2.79.14-.45.29-.92.45-1.41,2.15-6.8,5.4-17.09,6.14-22.11.02-.12.11-.22.23-.25.12-.03.25.02.32.12.62.87,1.33,1.58,2.1,2.13,1.32.93,3.89,1.62,5.89,1.18.99-.22,1.69-.67,2.09-1.36.07-.12.21-.18.35-.14.13.04.23.16.22.3-.17,6.66-2.67,24.01-4.05,28.12-2.49,7.39-5.64,11.26-9.63,11.83-.33.05-.66.07-1,.07Z"/><path d="m155.34,134.89c-.39,0-.77-.05-1.16-.15-.16-.04-.26-.21-.22-.37.04-.16.21-.26.37-.22.96.25,1.92.14,2.8-.32.15-.08.33-.02.41.13.08.15.02.33-.13.41-.66.35-1.36.53-2.08.53Z"/><path d="m132.52,233.83c-.15,0-.28-.11-.3-.26-.66-4.61-2.74-25.37-2.2-29.84.02-.17.17-.29.34-.27.17.02.29.17.27.34-.53,4.42,1.54,25.08,2.2,29.68.02.17-.09.32-.26.35-.01,0-.03,0-.04,0Z"/><path d="m164.98,233.6c-.12,0-.23-.07-.28-.19-.95-2.26-2.45-10.17-3.78-17.15-.92-4.85-1.79-9.43-2.28-11.06-.05-.16.04-.33.2-.38.16-.05.33.04.38.2.5,1.66,1.33,6.05,2.3,11.12,1.32,6.95,2.81,14.83,3.74,17.03.07.16,0,.33-.16.4-.04.02-.08.02-.12.02Z"/><path d="m146.7,233.46c-.13,0-.26-.09-.29-.23-.57-2.12-1.09-3.96-1.6-5.75-.51-1.79-1.03-3.64-1.6-5.76-.42-1.56-.85-3.17-1.7-4.45-.9-1.36-2.15-2.2-3.47-3.08-.52-.35-1.05-.7-1.56-1.09-.81-.62-1.39-1.22-1.83-1.88-.09-.14-.06-.33.08-.42.14-.09.33-.06.42.08.4.6.94,1.15,1.7,1.73.49.38,1.02.73,1.53,1.07,1.32.88,2.68,1.78,3.64,3.25.9,1.36,1.36,3.1,1.78,4.63.57,2.12,1.09,3.96,1.6,5.75.51,1.79,1.03,3.64,1.6,5.76.04.16-.05.33-.22.37-.03,0-.05.01-.08.01Z"/><g><path d="m229.91,149.23h-19.06c-.17,0-.31-.14-.31-.31s.14-.31.31-.31h19.06c.17,0,.31.14.31.31s-.14.31-.31.31Z"/><path d="m222.65,156.56h-11.81c-.17,0-.31-.14-.31-.31s.14-.31.31-.31h11.81c.17,0,.31.14.31.31s-.14.31-.31.31Z"/></g><g><path d="m277.3,110.42h-19.06c-.17,0-.31-.14-.31-.31s.14-.31.31-.31h19.06c.17,0,.31.14.31.31s-.14.31-.31.31Z"/><path d="m277.3,118.23h-10.65c-.17,0-.31-.14-.31-.31s.14-.31.31-.31h10.65c.17,0,.31.14.31.31s-.14.31-.31.31Z"/></g><g><path d="m205.22,124.93c-.05,0-.1-.01-.15-.04-.15-.08-.2-.27-.12-.42l8.28-14.89c.08-.15.27-.2.42-.12.15.08.2.27.12.42l-8.28,14.89c-.06.1-.16.16-.27.16Z"/><path d="m225.98,129.58s-.09-.01-.14-.03c-.15-.08-.21-.26-.14-.41l10.2-20.32c.08-.15.26-.21.41-.14.15.08.21.26.14.41l-10.2,20.32c-.05.11-.16.17-.27.17Z"/><path d="m204.96,125.04c-.07,0-.14-.02-.19-.07l-11.33-9.32c-.13-.11-.15-.3-.04-.43.11-.13.3-.15.43-.04l11.33,9.32c.13.11.15.3.04.43-.06.07-.15.11-.24.11Z"/><path d="m226.06,129.01c-.1,0-.2-.05-.26-.15l-11.2-18.46c-.09-.14-.04-.33.1-.42.14-.09.33-.04.42.1l11.2,18.46c.09.14.04.33-.1.42-.05.03-.1.04-.16.04Z"/><g><path class="cls-4" d="m191.14,116.06c-.46-1.92,1.22-3.6,3.14-3.14.9.22,1.64.96,1.86,1.86.46,1.92-1.22,3.6-3.14,3.14-.9-.22-1.64-.96-1.86-1.86Z"/><path d="m193.63,118.3c-1.59,0-2.88-1.29-2.88-2.88s1.29-2.88,2.88-2.88,2.88,1.29,2.88,2.88-1.29,2.88-2.88,2.88Zm0-5.15c-1.25,0-2.27,1.02-2.27,2.27s1.02,2.27,2.27,2.27,2.27-1.02,2.27-2.27-1.02-2.27-2.27-2.27Z"/></g><g><path class="cls-1" d="m202.66,124.9c0-1.42,1.15-2.57,2.57-2.57s2.57,1.15,2.57,2.57-1.15,2.57-2.57,2.57-2.57-1.15-2.57-2.57Z"/><path d="m205.23,127.78c-1.59,0-2.88-1.29-2.88-2.88s1.29-2.88,2.88-2.88,2.88,1.29,2.88,2.88-1.29,2.88-2.88,2.88Zm0-5.15c-1.25,0-2.27,1.02-2.27,2.27s1.02,2.27,2.27,2.27,2.27-1.02,2.27-2.27-1.02-2.27-2.27-2.27Z"/></g><g><path class="cls-1" d="m211.58,109.38c0-1.42,1.15-2.57,2.57-2.57s2.57,1.15,2.57,2.57-1.15,2.57-2.57,2.57-2.57-1.15-2.57-2.57Z"/><path d="m214.16,112.26c-1.59,0-2.88-1.29-2.88-2.88s1.29-2.88,2.88-2.88,2.88,1.29,2.88,2.88-1.29,2.88-2.88,2.88Zm0-5.15c-1.25,0-2.27,1.02-2.27,2.27s1.02,2.27,2.27,2.27,2.27-1.02,2.27-2.27-1.02-2.27-2.27-2.27Z"/></g><g><circle class="cls-4" cx="225.46" cy="128.52" r="2.57"/><path d="m225.46,131.4c-1.59,0-2.88-1.29-2.88-2.88s1.29-2.88,2.88-2.88,2.88,1.29,2.88,2.88-1.29,2.88-2.88,2.88Zm0-5.15c-1.25,0-2.27,1.02-2.27,2.27s1.02,2.27,2.27,2.27,2.27-1.02,2.27-2.27-1.02-2.27-2.27-2.27Z"/></g><g><circle class="cls-1" cx="237.15" cy="107.48" r="2.57"/><path d="m237.15,110.36c-1.59,0-2.88-1.29-2.88-2.88s1.29-2.88,2.88-2.88,2.88,1.29,2.88,2.88-1.29,2.88-2.88,2.88Zm0-5.15c-1.25,0-2.27,1.02-2.27,2.27s1.02,2.27,2.27,2.27,2.27-1.02,2.27-2.27-1.02-2.27-2.27-2.27Z"/></g><path d="m203.39,125.64s-.03,0-.05-.01c-.05-.03-.07-.09-.04-.14l1.15-2.17s.09-.07.14-.04c.05.03.07.09.04.14l-1.15,2.17s-.05.05-.09.05Z"/><path d="m204.34,126.51s-.03,0-.05-.01c-.05-.03-.07-.09-.04-.14l1.65-3.11s.09-.07.14-.04c.05.03.07.09.04.14l-1.65,3.11s-.05.05-.09.05Z"/><path d="m205.53,126.3s-.04,0-.05-.02c-.05-.03-.06-.09-.03-.14l1.06-1.69s.09-.06.14-.03c.05.03.06.09.03.14l-1.06,1.69s-.05.05-.09.05Z"/><path d="m235.34,107.56s-.03,0-.05-.01c-.05-.03-.07-.09-.04-.14.25-.49.53-.97.84-1.43.03-.05.09-.06.14-.03.05.03.06.09.03.14-.3.45-.58.92-.83,1.4-.02.04-.05.06-.09.06Z"/><path d="m235.98,108.5s-.03,0-.05-.01c-.05-.03-.07-.09-.04-.14.45-.87.95-1.73,1.49-2.55.03-.05.09-.06.14-.03.05.03.06.09.03.14-.53.81-1.03,1.66-1.48,2.53-.02.04-.05.06-.09.06Z"/><path d="m236.71,109.36s-.03,0-.05-.01c-.05-.03-.07-.09-.04-.14.51-.98,1.06-1.95,1.66-2.88.03-.05.09-.06.14-.03.05.03.06.09.03.14-.59.93-1.14,1.89-1.65,2.86-.02.04-.05.06-.09.06Z"/><path d="m237.95,109.05s-.04,0-.06-.02c-.05-.03-.06-.1-.02-.14.34-.48.66-.99.96-1.49.03-.05.09-.07.14-.04.05.03.07.09.04.14-.3.51-.62,1.02-.97,1.51-.02.03-.05.04-.08.04Z"/></g><path d="m177.57,178.62s-.05,0-.08,0c-.16-.04-.26-.21-.22-.37l.71-2.73c.04-.16.21-.26.37-.22.16.04.26.21.22.37l-.71,2.73c-.04.14-.16.23-.3.23Z"/><path d="m191.64,158.49c-1.21,0-2.42-.34-3.44-1-.14-.09-.18-.28-.09-.42.09-.14.28-.18.42-.09,1.52.98,3.51,1.18,5.19.51.16-.06.33.01.4.17.06.16-.01.33-.17.4-.73.29-1.52.44-2.31.44Z"/><g><path class="cls-1" d="m300.04,39.02c.87,2.63,1.94,5.37,1.75,8.19-.11,1.54,1.33,8.99,7.71,9.99,3.36.53,6.93-.38,9.8-2.96,1.95-1.75,3.85-6.4,2.54-10.41,1.92.16,3.49-1.4,3.2-3.05-.16-.95-1.43-1.93-2.52-1.67-.84.2-.94.23-1.5.85-.8-1.85-1.44-3.76-1.82-5.99-2.5-1.89-6.04-2.43-9.45-2.31-1.13.04-2.27.15-3.36.5-3.11,1-7.24,4.16-6.35,6.87Z"/><path d="m311.37,57.65c-.63,0-1.27-.05-1.92-.15-6.44-1.01-8.1-8.42-7.97-10.31.17-2.42-.64-4.8-1.41-7.11-.11-.32-.22-.65-.32-.97-.26-.78-.16-1.62.29-2.51,1.09-2.13,4.04-4.04,6.26-4.75,1.21-.39,2.48-.48,3.44-.51,2.84-.1,6.81.22,9.64,2.37.06.05.1.12.12.19.32,1.86.84,3.62,1.62,5.5.38-.36.62-.43,1.33-.6.56-.13,1.21,0,1.78.38.59.39,1.02.98,1.11,1.54.14.82-.12,1.67-.73,2.33-.6.65-1.46,1.04-2.36,1.08,1.12,4.13-.83,8.61-2.75,10.33-2.33,2.09-5.16,3.18-8.14,3.18Zm-.71-25.71c-.31,0-.61,0-.89.02-.93.03-2.14.12-3.28.49-2.1.67-4.89,2.46-5.9,4.44-.37.73-.46,1.42-.26,2.04h0c.1.32.21.64.32.96.79,2.36,1.62,4.8,1.44,7.34-.07,1.05,1.02,8.66,7.46,9.67,3.48.54,6.87-.48,9.55-2.89,1.81-1.63,3.73-6.16,2.45-10.09-.03-.1-.01-.2.05-.28.06-.08.16-.12.27-.11.87.07,1.73-.25,2.3-.87.48-.52.69-1.18.58-1.82-.07-.4-.4-.84-.85-1.13-.43-.28-.9-.39-1.3-.3-.81.19-.85.2-1.34.75-.07.08-.17.11-.28.1-.1-.02-.19-.08-.23-.18-.89-2.04-1.47-3.93-1.82-5.94-2.4-1.77-5.67-2.19-8.26-2.19Z"/></g><g><circle class="cls-5" cx="312.98" cy="23.06" r="7" transform="translate(198.29 315.18) rotate(-72.78)"/><path d="m313,30.36c-2.64,0-5.19-1.43-6.49-3.93-1.86-3.57-.47-8,3.1-9.86,3.57-1.86,8-.47,9.86,3.1h0c1.86,3.57.47,8-3.1,9.86-1.08.56-2.23.83-3.37.83Zm-.02-14.01c-1.04,0-2.1.24-3.09.76-3.28,1.71-4.55,5.76-2.84,9.04,1.71,3.28,5.76,4.55,9.04,2.84,3.28-1.71,4.55-5.76,2.84-9.04-1.19-2.29-3.53-3.6-5.95-3.6Z"/></g><g><path class="cls-5" d="m320.89,40.07c-2.64-1.96-5.01-4.5-6.73-7.44-4.8,5.94-10.88,7.5-16.86,9.47-.5-.95-.68-2.06-.61-3.17.15-2.71.67-5.2,3.64-8.11,2.08-2.04,5.16-4.04,8.01-4.65,2.83-.61,5.68-.03,8.21,1.01,2.01.83,4.13,2.63,5.41,4.7,1.1,1.78,1.84,5.06,1.71,7.34-.37-.17-.83-.26-1.49-.03-.38.14-.85.49-1.28.88Z"/><path d="m297.3,42.41c-.11,0-.22-.06-.27-.16-.49-.94-.72-2.09-.65-3.33.17-3.04.85-5.49,3.73-8.31,1.87-1.84,4.99-4.05,8.15-4.73,2.55-.56,5.38-.21,8.39,1.03,2.13.87,4.25,2.72,5.55,4.83,1.12,1.81,1.89,5.11,1.75,7.52,0,.1-.06.19-.15.24-.09.05-.19.06-.29.02-.28-.13-.65-.23-1.26-.02-.31.11-.72.4-1.17.81-.11.1-.27.11-.39.02-2.66-1.98-4.93-4.45-6.59-7.16-4.4,5.24-9.89,7.02-15.19,8.73-.51.16-1.02.33-1.53.5-.03.01-.06.02-.1.02Zm13.4-16.18c-.79,0-1.56.08-2.31.24-3.03.66-6.05,2.79-7.86,4.57-3.03,2.98-3.41,5.54-3.55,7.91-.06,1.02.1,1.98.47,2.78.43-.14.85-.28,1.28-.42,5.58-1.81,10.85-3.51,15.18-8.87.06-.08.16-.12.26-.11.1,0,.19.06.24.15,1.59,2.72,3.82,5.2,6.45,7.2.34-.3.78-.62,1.19-.77.47-.17.89-.2,1.3-.1.03-2.23-.69-5.17-1.68-6.76-1.22-1.97-3.28-3.77-5.27-4.58-2.01-.83-3.92-1.24-5.72-1.24Z"/></g><path d="m312.81,53.75c-.34,0-.66-.08-.95-.24-.15-.08-.2-.27-.12-.42.08-.15.27-.2.42-.12.72.4,1.5-.04,1.72-.18.67-.44,1.15-1.14,1.37-1.96.04-.16.21-.26.37-.22.16.04.26.21.22.37-.25.97-.83,1.8-1.62,2.32-.45.3-.94.45-1.4.45Z"/><path d="m314.6,43.2c-.11-.33-.48-.51-.82-.39-.35.11-.54.47-.44.8.11.33.48.51.82.39.35-.11.54-.47.44-.8Z"/><path d="m304.67,45.6c-.11-.33-.48-.51-.82-.39-.35.11-.54.47-.44.8.11.33.48.51.82.39.35-.11.54-.47.44-.8Z"/><path d="m309.99,49.04s-.04,0-.05,0l-.94-.17c-.12-.02-.36-.07-.49-.28-.16-.26-.02-.54.04-.67.49-.99.49-2.16.01-3.13-.07-.15-.01-.33.14-.41.15-.07.33-.01.41.14.56,1.13.56,2.5-.01,3.67,0,.01-.02.04-.03.07.01,0,.03,0,.05,0l.94.17c.17.03.28.19.25.35-.03.15-.16.25-.3.25Z"/><g><path d="m315.38,48.05c-.67,0-1.35-.18-1.98-.54-.98-.56-1.71-1.49-2.08-2.61-.36-1.12-.31-2.3.15-3.33.46-1.04,1.29-1.79,2.32-2.13,1.03-.33,2.14-.21,3.12.36.98.56,1.71,1.49,2.08,2.61.36,1.12.31,2.3-.15,3.33-.46,1.04-1.29,1.79-2.32,2.13-.38.12-.76.18-1.15.18Zm-.44-8.18c-.32,0-.65.05-.96.15-.86.28-1.55.92-1.95,1.8-.4.89-.44,1.92-.13,2.89.32.98.96,1.78,1.8,2.27.83.48,1.77.59,2.63.31.86-.28,1.55-.92,1.95-1.8.4-.89.44-1.92.13-2.89-.32-.98-.96-1.78-1.8-2.27-.53-.31-1.1-.46-1.67-.46Z"/><path d="m304.66,50.57c-1.76,0-3.44-1.24-4.06-3.15-.75-2.32.35-4.77,2.46-5.46,1.03-.33,2.14-.21,3.12.36.98.56,1.71,1.49,2.08,2.61.75,2.32-.35,4.77-2.46,5.46-.38.12-.76.18-1.14.18Zm-.45-8.18c-.32,0-.64.05-.96.15-1.79.58-2.72,2.69-2.07,4.69.65,2,2.64,3.16,4.43,2.58,1.79-.58,2.72-2.69,2.07-4.69h0c-.32-.98-.96-1.78-1.8-2.27-.53-.31-1.1-.46-1.67-.46Z"/><path d="m307.76,44.64c-.14,0-.27-.1-.3-.24-.13-.64.4-1.2.98-1.47.93-.43,2.08-.38,2.94.12.15.09.19.27.11.42-.09.15-.27.19-.42.11-.69-.41-1.62-.44-2.38-.09-.36.17-.7.5-.64.79.03.17-.07.33-.24.36-.02,0-.04,0-.06,0Z"/></g><path d="m317.48,40.92c-.15,0-.28-.11-.3-.26-.03-.17.09-.32.25-.35l3.03-.49c.17-.03.32.09.35.25.03.17-.09.32-.25.35l-3.03.49s-.03,0-.05,0Z"/><path d="m317.59,25.77c-.07,0-.14-.02-.19-.07-.64-.53-1.47-.9-2.47-1.1-.93-.19-1.89-.21-2.8-.2h0c-.17,0-.3-.14-.31-.3,0-.17.14-.31.3-.31.94,0,1.95.02,2.93.22,1.1.22,2.02.63,2.73,1.22.13.11.15.3.04.43-.06.07-.15.11-.24.11Z"/><path d="m321.51,42.54c-.15,0-.27-.1-.3-.25-.14-.77-.44-1.52-.87-2.17-.09-.14-.06-.33.09-.42.14-.09.33-.06.42.09.48.72.81,1.55.96,2.4.03.17-.08.32-.25.35-.02,0-.04,0-.05,0Z"/><g class="cls-8"><path d="m307.96,24.91c.16-.16.39-.2.61-.26.34-.09.69-.16,1.04-.2,2.06-.34,4.18-.03,6.14.65.52.19,1.01.43,1.51.65.29.15.65.27.84.55.51.68-.34,1.57-1.06,1.12-1.09-.68-3.16-1.36-4.49-1.46-1.29-.14-1.59-.1-2.71.04-.32.04-.64.08-.96.15-.26.08-.56.12-.8-.05-.41-.25-.47-.87-.11-1.19Z"/></g><g class="cls-8"><path d="m300.18,41.52c.03-.23.21-.43.43-.49.07-.03.47-.15.56-.17.62-.19,1.25-.35,1.85-.58,1.15-.46,2.33-.86,3.42-1.44,1.36-.64,2.49-1.36,3.91-2.39,1.25-.94,2.06-1.9,3.09-3.31.18-.22.32-.56.63-.61.39-.06.68.43.43.74-1.13,1.54-2.29,3.1-3.86,4.23-.9.68-1.84,1.29-2.81,1.85-.79.42-1.61.77-2.43,1.14-1.25.53-2.49,1.08-3.79,1.48-.21.07-.42.12-.63.18-.13.03-.26.06-.39.01-.29-.06-.47-.36-.43-.64Z"/></g><g class="cls-8"><path d="m312.2,61.11c-.01-.24-.03-.48-.04-.72,0-.46,0-.91-.08-1.36-.03-.43-.05-.86-.08-1.29,0-.05-.02-.09-.05-.12,0-.03,0-.07,0-.1,0-.1-.05-.16-.13-.18.21-.29.66-.14.99-.11.24.02.52.05,1.01,0,.4-.03,2.63-.62,2.81-.78.11-.1.23-.21.34-.31.32-.11.63-.23.93-.36.01.04.03.08.04.11.02.05.03.1.06.14.02.03.04.06.06.09.08.11.17.22.25.34-.02.03-.04.06-.07.09-.97,1-2,1.94-2.94,2.97-.47.52-.94,1.02-1.42,1.53-.21.2-.41.44-.67.59,0,0,0,0,0,0,0,0,0,0-.01,0,0,0-.02.01-.03.02-.02.01-.04.02-.06.03-.03.02-.06.03-.09.04,0,0,0,0-.01,0,0,0,0,0,0,0-.05.02-.11.03-.17.04-.22.02-.41-.09-.52-.26-.05-.03-.09-.06-.12-.11,0-.11-.02-.23-.03-.34Z"/></g><g><path class="cls-1" d="m309.26,92.19c-.78-1.26.1-2.93.31-3.57.55-1.69,2.05-4.24,2.93-4.18.41.62.47,1.52.39,2.26-.13,1.25-.52,2.47-1.14,3.56-.54.96-1.3,1.82-2.48,1.93Z"/><path d="m309.26,92.5c-.11,0-.2-.05-.26-.15-.74-1.2-.16-2.68.15-3.48.05-.13.1-.25.13-.35.51-1.55,2.04-4.4,3.19-4.4.02,0,.03,0,.05,0,.1,0,.18.06.23.14.52.79.5,1.88.44,2.46-.14,1.28-.54,2.55-1.18,3.68-.74,1.3-1.63,1.98-2.72,2.09,0,0-.02,0-.03,0Zm3.08-7.73c-.65.25-1.93,2.26-2.48,3.95-.03.1-.08.23-.14.38-.27.7-.72,1.85-.29,2.76.8-.14,1.46-.71,2.05-1.75.6-1.05.98-2.24,1.1-3.44.05-.46.07-1.28-.24-1.9Z"/></g><path class="cls-1" d="m332.56,78.83c1.41,4.68,5.04,11.97,5.72,13.43-9.92-3.09-19.24-5.78-25.78-7.82,1.83,3.42-.63,6.47-3.14,7.82,5.06,3.1,34.74,18.72,40.17,8.99,1.76-3.16-.56-10.96-1.55-14.44-1.4-4.92-6.71-17.24-11.21-21.09-2.54.97-4.94,2.81-5.7,5.42-.75,2.56.71,5.06,1.5,7.69Z"/><path d="m342.41,104.71c-4.2,0-9.92-1.45-17.08-4.33-7.77-3.12-14.41-6.82-16.12-7.86-.09-.06-.15-.16-.15-.27,0-.11.06-.21.16-.26,2.61-1.41,4.67-4.32,3.02-7.4-.06-.11-.05-.24.03-.34.08-.1.21-.13.33-.1,2.92.91,6.48,1.98,10.25,3.1,4.52,1.35,9.61,2.88,14.86,4.51-.04-.09-.09-.18-.13-.28-1.22-2.54-4.08-8.5-5.3-12.56-.05-.16.04-.33.2-.38.16-.05.33.04.38.2,1.21,4.02,4.06,9.94,5.27,12.48.19.4.34.71.43.91.05.11.03.24-.05.33-.08.09-.21.13-.32.09-5.48-1.7-10.81-3.3-15.51-4.71-3.49-1.05-6.81-2.04-9.6-2.9,1.2,3.02-.64,5.8-3.11,7.33,4.98,2.93,26.18,13.95,35.62,11.47,1.71-.45,2.95-1.34,3.68-2.63,1.64-2.94-.46-10.3-1.47-13.83l-.11-.38c-1.44-5.06-6.69-17.16-11.16-21.29-3.78-3.49-12.9-4.38-15.95-4.58-.99,2.09-3.42,4.11-5.62,3.88-1.14-.12-2.23-.83-2.96-1.93-3.73,1.79-7.56,3.65-10.52,6.63-4.21,4.23-6.48,11.99-8.13,17.65l-.08.27c-.05.16-.22.25-.38.21-.16-.05-.25-.22-.21-.38l.08-.27c1.77-6.05,3.97-13.57,8.29-17.91,3.1-3.12,7.08-5.02,10.94-6.87.14-.07.31-.02.39.12.63,1.06,1.62,1.76,2.65,1.87,1.97.21,4.26-1.79,5.09-3.71.05-.12.17-.19.3-.18,2.86.18,12.52,1.05,16.54,4.75,4.55,4.2,9.87,16.45,11.33,21.57l.11.38c1.11,3.89,3.19,11.13,1.42,14.3-.81,1.45-2.17,2.43-4.05,2.93-.97.26-2.09.38-3.33.38Z"/><g><g><path class="cls-1" d="m297.12,76.45c2.6,3.62,3.93,8,5.99,11.96.48.92,1.1,1.89,2.09,2.16.88.23,1.89-.24,2.29-1.07.32-.67.26-1.47,0-2.15-.26-.69-.71-1.28-1.14-1.88-2.47-3.4-4.76-6.94-6.85-10.59-.81.5-1.61,1.01-2.38,1.58Z"/><path d="m305.66,90.93c-.18,0-.36-.02-.54-.07-1.1-.29-1.77-1.33-2.29-2.31-.76-1.45-1.43-2.99-2.07-4.47-1.11-2.55-2.26-5.18-3.9-7.45-.1-.14-.07-.32.07-.42.78-.58,1.6-1.1,2.4-1.59.07-.04.16-.06.24-.04.08.02.15.07.19.14,2.08,3.63,4.38,7.18,6.84,10.56l.04.05c.43.59.87,1.19,1.14,1.9.32.85.32,1.72,0,2.4-.38.79-1.24,1.3-2.11,1.3Zm-8.12-14.41c1.58,2.26,2.7,4.83,3.78,7.32.64,1.47,1.31,2.99,2.06,4.43.45.86,1.03,1.77,1.9,2,.73.19,1.6-.21,1.94-.91.25-.52.25-1.22-.02-1.91-.24-.63-.66-1.2-1.06-1.76l-.04-.05c-2.41-3.31-4.67-6.79-6.71-10.34-.62.39-1.25.79-1.85,1.22Z"/></g><g><path class="cls-2" d="m295.43,75.63c-.08.59.08,1.21.45,1.68.13.16.28.31.48.36.19.05.4,0,.59-.05,1.23-.36,2.29-1.12,3.32-1.87.3-.22.6-.44.78-.76.14-.24.2-.53.2-.81,0-.78-.6-1.59-1.38-1.59-.41,0-.79.2-1.14.41-.96.57-1.89,1.2-2.77,1.89-.32.25-.66.55-.54.75Z"/><path d="m296.54,77.99c-.09,0-.17,0-.26-.03-.23-.06-.44-.21-.64-.46-.4-.5-.6-1.18-.53-1.82-.13-.42.38-.81.66-1.04.89-.69,1.83-1.34,2.8-1.91.39-.23.81-.45,1.29-.45h.01c.99,0,1.68,1.01,1.68,1.9,0,.36-.08.69-.24.96-.22.38-.56.63-.87.85-1,.72-2.12,1.54-3.42,1.92-.16.05-.32.08-.49.08Zm-.83-2.46s.02.09.01.14c-.07.5.07,1.04.39,1.44.11.14.22.23.32.25.12.03.27,0,.42-.05,1.19-.35,2.23-1.1,3.23-1.83.27-.2.55-.4.7-.66.1-.18.16-.41.16-.65,0-.6-.46-1.28-1.07-1.29-.33,0-.65.17-.99.37-.95.56-1.87,1.19-2.74,1.86-.31.24-.41.36-.44.41Z"/></g><g><path class="cls-1" d="m295.23,51.03c-4.74-1.19-10.01,1.04-13.15,4.79-3.14,3.74-4.1,9.19-2.43,13.79,1.1,3.02,4.26,6.28,9.44,7.27,3.62.69,7.42-.64,10.32-2.91,2.29-1.79,4.14-4.19,5.05-6.95.91-2.76,2.42-13.06-9.22-15.99Zm-.51,23.2c-6.39,2.15-12.4-2.1-13.02-7.38-.47-3.99.8-7.32,1.54-8.38,1.24-1.76,4.24-5.15,8.42-5.2,5.07-.06,8.02,2.58,9.29,4.47,1.27,1.89,1.84,4.24,1.58,6.5-.49,4.31-3.69,8.61-7.8,9.99Z"/><path d="m291.06,77.36c-.69,0-1.37-.06-2.04-.19-5.51-1.06-8.61-4.55-9.67-7.47-1.71-4.71-.74-10.24,2.49-14.09,3.43-4.08,8.84-6.05,13.46-4.89,4.08,1.03,6.98,3.04,8.6,6,2.1,3.83,1.51,8.32.83,10.38-.9,2.71-2.68,5.16-5.15,7.09-2.63,2.06-5.64,3.16-8.53,3.16Zm1.51-26.35c-3.72,0-7.61,1.84-10.26,5-3.09,3.68-4.02,8.97-2.38,13.48,1,2.76,3.95,6.07,9.21,7.08,3.28.63,6.96-.41,10.07-2.85,2.34-1.83,4.1-4.25,4.95-6.8.65-1.96,1.21-6.25-.79-9.89-1.54-2.8-4.3-4.72-8.22-5.7h0c-.84-.21-1.71-.31-2.59-.31Zm-1.27,24.09c-1.97,0-3.89-.54-5.56-1.6-2.42-1.53-4.04-4.01-4.35-6.62-.46-3.95.73-7.36,1.59-8.59,1.11-1.58,4.19-5.28,8.67-5.33.06,0,.11,0,.17,0,5.84,0,8.65,3.52,9.38,4.6,1.3,1.94,1.89,4.38,1.63,6.7-.52,4.55-3.89,8.86-8.01,10.25l-.1-.29.1.29c-1.16.39-2.34.58-3.51.58Zm.52-21.52c-.05,0-.11,0-.16,0-4.2.05-7.11,3.56-8.17,5.07-.68.97-1.94,4.24-1.49,8.17.28,2.43,1.8,4.74,4.07,6.17,2.51,1.59,5.63,1.94,8.55.96h0c3.91-1.32,7.11-5.41,7.6-9.74.25-2.18-.31-4.47-1.53-6.29-.68-1.02-3.33-4.33-8.87-4.33Z"/></g><path d="m299.27,78.69s-.03,0-.05-.01c-.05-.03-.07-.09-.05-.14l.71-1.42c.03-.05.09-.07.14-.05.05.03.07.09.04.14l-.71,1.42s-.05.06-.09.06Z"/><path d="m299.9,80.33s-.02,0-.03,0c-.05-.02-.08-.08-.06-.13.25-.69.52-1.38.8-2.05.02-.05.08-.08.13-.05.05.02.08.08.05.13-.28.67-.55,1.36-.8,2.04-.02.04-.05.07-.1.07Z"/><path d="m300.63,82.07s-.02,0-.03,0c-.05-.01-.09-.07-.07-.13.22-.82.52-1.62.88-2.39.02-.05.08-.07.14-.05.05.02.07.08.05.14-.36.76-.65,1.55-.87,2.36-.01.05-.05.07-.1.07Z"/><path d="m301.47,83.64s-.02,0-.03,0c-.05-.02-.08-.07-.07-.13.26-.86.57-1.73.91-2.56.02-.05.08-.08.13-.06.05.02.08.08.06.13-.34.83-.64,1.69-.9,2.55-.01.04-.05.07-.1.07Z"/><path d="m302.28,85.74s-.02,0-.03,0c-.05-.02-.08-.07-.07-.13l.99-3.3c.02-.05.07-.08.13-.07.05.02.08.07.07.13l-.99,3.3s-.05.07-.1.07Z"/><path d="m303.38,87.44s-.02,0-.03,0c-.05-.02-.09-.07-.07-.13l.89-3.1c.02-.05.07-.09.13-.07.05.02.09.07.07.13l-.89,3.1s-.05.07-.1.07Z"/><path d="m304.54,89.4s-.02,0-.02,0c-.05-.01-.09-.07-.07-.12l.86-3.43c.01-.05.07-.09.12-.07.05.01.09.07.07.12l-.86,3.43s-.05.08-.1.08Z"/><path d="m305.98,89.44s-.02,0-.03,0c-.05-.02-.09-.07-.07-.13l.48-1.72c.02-.05.07-.09.13-.07.05.02.09.07.07.13l-.48,1.72s-.05.07-.1.07Z"/><g class="cls-8"><path d="m291.26,73.66s-.02,0-.03-.01c0,0,0,0,0,0-.11-.35-.46-.44-.8-.45-.13-.03-.15-.02-.29-.05-.32-.16-.82-.39-1.18-.55-.16-.08-1.17-.49-1.96-1.13-.03-.02-.05-.04-.08-.07,0,0,0,0,0,0-.35-.31-.67-.66-.96-1.02-.4-.47-1.28-1.9-1.4-2.49-.32-1.09-.37-1.76-.45-2.58-.09-.93-.18-1.87-.04-2.8,0-.06.02-.13.03-.18.31-1.7.4-2.28.72-3.74.07-.26.13-.53.2-.79.04-.13.03-.28-.04-.41-.2-.41-.86-.35-.98.09-.04.04-.07.09-.09.16-.07.16-.14.33-.21.49-.24,0-.48.13-.6.4-.2.35-.37.72-.54,1.1-.1.25-.22.57-.19.84,0,.04-.02.08-.02.12-.1.6-.14,1.2-.17,1.8-.07.29-.14.58-.19.87-.09.52-.28,1.34-.23,2.35.04.78.08,1.56.27,2.32.18.63.43,1.26.76,1.83,0,.11.05.22.14.3.07.07.14.14.21.21.11.15.23.29.35.42.03.03.06.06.09.09.72.9,1.32,1.93,2.31,2.57.86.53,1.85.75,2.81,1,.11.02.21.05.31.07.03.01.05.02.06.03-.01,0-.03-.01-.06-.03.48.26,1.03.39,1.57.44.41.01.52-.01.62-.03.61-.16.62-.91.07-1.17Z"/></g><g class="cls-8"><path d="m300.14,76.21c-.32,0-.54.27-.83.38-.2.09-.39.19-.58.28-.18.11-.42.16-.55.33-.46.51.18,1.29.78.96.6-.28,1.29-.67,1.46-.82,0,0,.01,0,.02-.01.5-.3.31-1.1-.29-1.12Z"/></g></g><g><path class="cls-1" d="m308.79,81.74c-.97-.98-1.99-1.97-3.26-2.52-1.27-.55-3.57-.24-3.57-.24l1.11,1.73s1.34.25,2.19,1.36c-1.16-.08-2.37-.16-3.4-.7-.49-.26-.95-.61-1.5-.66-.55-.05-1.18.43-1.02.96.17.53.96.63,1.15,1.14-.58.05-1.08.6-1.08,1.18,0,.59.52,1.12,1.1,1.16-.39.13-.56.63-.44,1.02.13.39.58.69.88.97,1.25,1.16,2.22,1.79,3.06,2.16,2.36,1.03,6.15,1.86,6.76,1.98.18.03,1.86-1.63,2.18-3.25.19-.95.06-2.08-.62-2.76-.27-.28-2.6-2.53-3.57-3.51Z"/><path d="m310.78,91.57s-.02,0-.04,0c-.65-.12-4.48-.96-6.83-2-.97-.43-1.97-1.13-3.15-2.22-.07-.06-.14-.12-.22-.19-.29-.25-.63-.53-.75-.91-.1-.31-.06-.69.12-.98-.46-.25-.79-.75-.8-1.29,0-.57.35-1.1.85-1.35-.06-.05-.14-.09-.21-.14-.27-.18-.58-.37-.7-.75-.09-.29-.03-.6.18-.86.27-.33.73-.53,1.16-.5.48.04.88.28,1.26.5.12.07.23.13.35.2.75.39,1.62.53,2.47.61-.69-.54-1.44-.69-1.45-.69-.08-.02-.15-.06-.2-.14l-1.11-1.73c-.06-.09-.06-.2-.02-.29.04-.09.13-.16.24-.17.1-.01,2.4-.32,3.73.26,1.3.57,2.33,1.54,3.35,2.58.65.66,1.92,1.9,2.76,2.71.41.4.72.71.81.8.81.81.89,2.1.7,3.04-.3,1.49-1.95,3.5-2.5,3.5Zm-.06-.59h0Zm-10.43-9.98c-.21,0-.44.11-.57.27-.08.1-.1.2-.07.29.05.16.24.28.45.42.26.17.56.36.69.71.03.09.02.19-.03.27-.05.08-.14.13-.23.14-.42.03-.8.45-.8.87,0,.42.39.83.81.86.15,0,.27.12.28.27.02.15-.07.28-.21.33-.22.07-.31.41-.24.64.07.22.33.44.56.63.08.07.17.14.24.21,1.12,1.04,2.07,1.71,2.98,2.11,2.21.97,5.75,1.77,6.6,1.94.34-.25,1.65-1.63,1.92-3,.16-.78.1-1.85-.54-2.49-.09-.09-.4-.39-.81-.79-.84-.82-2.11-2.06-2.76-2.72-.98-.99-1.96-1.93-3.16-2.45-.84-.36-2.2-.32-2.92-.26l.77,1.2c.38.1,1.49.46,2.24,1.44.07.1.08.22.03.33-.06.11-.17.17-.29.16-1.13-.07-2.42-.16-3.52-.74-.13-.07-.25-.14-.37-.21-.34-.2-.67-.39-1.01-.42-.02,0-.03,0-.05,0Z"/></g><g><g><polygon class="cls-1" points="278.98 60.25 295.43 92.26 274.17 92.22 258.39 60.18 278.98 60.25"/><path d="m295.43,92.56h0l-21.26-.04c-.12,0-.22-.07-.27-.17l-15.78-32.04c-.05-.09-.04-.21.02-.3.06-.09.15-.14.26-.14h0l20.59.08c.11,0,.22.06.27.17l16.45,32c.05.09.04.21-.01.3-.06.09-.15.15-.26.15Zm-21.07-.65l20.57.04-16.14-31.39-19.91-.07,15.48,31.43Z"/></g><g><path class="cls-1" d="m264.51,72.84c1.45-.2,2.89-.39,4.34-.59.35-.05.71-.1,1.06-.04.35.05.7.22.9.51.09.13.09.57-.23.75-1.18.68-2.41.95-3.72,1.31.07.27.4.38.68.41.64.08,1.23.2,1.88.16,1.56-.08,1.8.69,1.3,1.11-.26.22-2.25.67-3.19.64.34.23.77.28,1.17.33.41.05.83.12,1.16.36.33.25.51.74.29,1.08-.17.27-.52.36-.83.42-.43.08-.87.14-1.3.17.19.11.39.22.53.39.14.17.21.42.12.62-.1.22-.36.32-.6.37-.6.11-1.23.02-1.76-.28-.58-.31-1.02-.83-1.39-1.37-.9-1.28-1.53-2.75-1.83-4.29-.05-.27-.1-.54-.06-.81.1-.69.82-1.17,1.51-1.27Z"/><path d="m267.55,81.19c-.49,0-.98-.12-1.41-.36-.68-.37-1.16-.97-1.5-1.46-.92-1.31-1.57-2.83-1.88-4.4-.05-.27-.11-.58-.06-.91.12-.86.99-1.42,1.78-1.53h0l4.34-.59c.35-.05.75-.1,1.14-.04.48.07.88.31,1.11.65.1.15.13.4.07.62-.06.24-.2.44-.41.56-1.01.58-2.04.87-3.12,1.16.12.02.23.03.35.05.49.07.95.13,1.44.11,1.36-.07,1.71.47,1.8.7.13.33.01.69-.3.95-.2.16-.9.36-1.66.51.29.06.55.16.79.34.43.32.69.98.36,1.49-.23.36-.65.48-1.03.55-.19.04-.38.07-.58.09.22.28.27.64.14.92-.09.19-.3.44-.81.54-.18.04-.37.05-.55.05Zm-3-8.05h0c-.55.07-1.18.45-1.25,1.01-.03.23.01.48.06.7.3,1.49.91,2.93,1.78,4.17.3.43.72.97,1.29,1.28.47.26,1.04.34,1.56.24.2-.04.34-.11.38-.19.03-.07,0-.2-.08-.3-.11-.13-.28-.23-.44-.32-.12-.07-.18-.2-.15-.33.03-.13.14-.23.27-.24.42-.03.85-.09,1.27-.17.25-.05.52-.12.63-.28.13-.2,0-.51-.21-.67-.26-.2-.63-.26-1.01-.3-.43-.05-.91-.11-1.3-.37-.11-.07-.16-.22-.12-.35.04-.13.17-.22.3-.21.9.02,2.75-.41,2.99-.58.03-.03.15-.14.11-.25-.05-.13-.36-.36-1.2-.31-.54.03-1.04-.04-1.56-.11-.12-.02-.25-.03-.37-.05-.67-.09-.88-.4-.94-.65-.04-.16.06-.32.22-.37.17-.05.33-.09.49-.13,1.11-.3,2.16-.58,3.16-1.15.15-.09.13-.3.12-.33-.12-.18-.37-.32-.68-.36-.31-.05-.65,0-.97.04l-4.34.59Z"/></g><path d="m276.03,65.78h-11.05c-.17,0-.31-.14-.31-.31s.14-.31.31-.31h11.05c.17,0,.31.14.31.31s-.14.31-.31.31Z"/><path d="m278.06,70.03h-11.05c-.17,0-.31-.14-.31-.31s.14-.31.31-.31h11.05c.17,0,.31.14.31.31s-.14.31-.31.31Z"/><path d="m283.78,81.64h-11.05c-.17,0-.31-.14-.31-.31s.14-.31.31-.31h11.05c.17,0,.31.14.31.31s-.14.31-.31.31Z"/><path d="m286.17,85.83h-11.05c-.17,0-.31-.14-.31-.31s.14-.31.31-.31h11.05c.17,0,.31.14.31.31s-.14.31-.31.31Z"/></g><path d="m319.09,66.81c-.1,0-.2-.05-.26-.14-.09-.14-.04-.33.1-.42,1.4-.86,2.37-2.35,2.61-3.98.02-.17.18-.28.35-.26.17.02.28.18.26.35-.26,1.8-1.34,3.45-2.89,4.41-.05.03-.11.05-.16.05Z"/><path d="m322.9,65.33s-.07,0-.11-.02c-.16-.06-.24-.23-.18-.39l.84-2.28c.06-.16.23-.24.39-.18.16.06.24.23.18.39l-.84,2.28c-.05.12-.16.2-.29.2Z"/><g class="cls-8"><path d="m335.63,86.21c-.36-.78-.68-1.58-1.05-2.36-.12-.37-.42-.59-.73-.6-.11-.43-.21-.86-.3-1.3-.16-.7-.25-1.41-.38-2.12-.08-.29-.05-.65-.23-.9-.36-.51-1.21-.09-1.03.51.44,2.7.96,6.8,1.7,8.68.12.35.5.54.84.5.24.2.61.23.93.19h-.05c.53.05,1.09-.07,1.11-.71-.12-.68-.53-1.28-.81-1.9Z"/></g><g class="cls-8"><path d="m271.2,75.84c-.4-.19-.82.19-.77.61,0,0,0,.02,0,.02,0,0-.02.02-.03.03,0,0-.01,0-.02.01-.01,0-.02,0-.03.01-.01,0-.03.01-.04.02-.14.04-.28.07-.42.1,0,0,0,0,0,0-.21.02-.44-.04-.63.06-.62.23-.42,1.2.24,1.18.16.01.33,0,.5-.01-.16.17-.19.46-.06.67,0,0,0,.01,0,.02.03.07.05.14.06.22,0,0,0,0,0,0-.01.02-.03.03-.04.05-.05.05-.1.11-.16.16,0,0,0,0,0,0-.03.02-.06.03-.08.04-.09.03-.17.07-.26.09-.26.07-.59.07-.77.28-.24.13-.4.4-.31.69.19.43.11,1.2.72,1.27.41.08.78-.36.66-.75-.02-.08-.04-.16-.05-.25.27-.04.53-.11.76-.26.45-.31.77-.88.63-1.43,0,.03,0,.07.01.1-.02-.2-.09-.4-.18-.58-.07-.18-.2-.37-.38-.44.32-.12.61-.31.82-.6.23-.38.36-1.1-.15-1.31Z"/></g><g class="cls-8"><path d="m271.34,73.01c-.26-.28-.77-.14-.86.23,0,.02-.01.05-.02.07-.01.03,0,0,.01-.04-.02.06-.03.07-.03.07,0,0,0,0,0,0-.04.05-.13.14-.17.17-.04.03-.09.06-.13.09-.42.22-.17.1-.58.25-.42.12-.84.25-1.27.35-.25.07-.55.06-.76.23-.51.36-.09,1.2.51,1.02,1.02-.27,2.21-.37,2.97-1.19.33-.36.68-.88.33-1.25Z"/></g><g class="cls-8"><path d="m152.14,140.95c-.69.21-2.19,0-2.94-.07-.16.01-.27.09-.35.19-.02,0-.04-.01-.06-.02-.13-.05-.25-.12-.37-.18-.26-.11-.51-.23-.74-.36-.53-.29-1.02-.64-1.46-1.05-.29-.23-.58-.47-.85-.72-.19.04-.33.16-.41.32-.21.23-.27.6,0,.86.65.71,1.43,1.29,2.12,1.96.8.73,1.56,1.49,2.4,2.18.92.79,1.65,1.53,1.97,1.61.02,0,.05.01.07.02,0,0,0,0-.01,0,0,0,.02,0,.02,0,.03,0,.05.01.08.01.41.05.8-.28.79-.7,0-.23-.12-.44-.3-.58,0,0-.01-.02-.02-.03.26-.15.44-.45.44-.75,0-.09-.02-.17-.05-.26,0,0,0-.02,0-.03,0-.27-.04-.54-.08-.81,0,0,0,0,0,0,.01.08.02.17,0,.06,0-.03,0-.06,0-.08.02-.08.03-.16.04-.24.06-.07.1-.15.13-.23.03-.02.06-.04.09-.06.51-.36.09-1.2-.51-1.02Z"/></g><g class="cls-8"><path d="m194.78,153.77c-.16-.05-.9.12-.47.06-1.06.13-1.18.25-2.01.22-.81-.03-.68-.04-1.61-.17-.71-.09-1.39-.26-2.04-.48-1.42-.42-1.47-.43-2.24-.98-.24-.2-.59-.39-.94-.25-.45.12-.56.64-.22.89.05.04.1.07.14.11,0,.27.29.43.52.58.45.31.92.6,1.46.8,1.26.56,2.67.73,4.08.69,1.01.09,2.05.04,2.98-.3.27-.05.55-.11.76-.26.4-.29.15-.89-.4-.92Z"/></g><g class="cls-8"><path d="m172.49,159.82c-.05-.12-.53-.41-.28-.22-.62-.49-.76-.48-1.16-.95-.39-.46-.31-.4-.68-.99-.29-.45-.51-.92-.68-1.43-.41-1.04-.43-1.08-.43-1.85.02-.26-.02-.57-.3-.67-.31-.17-.73.1-.74.45,0,.05,0,.1,0,.15-.2.17-.16.43-.15.66,0,.44.04.89.17,1.31.24,1.05.82,1.92,1.55,2.67.44.61,1,1.15,1.7,1.43.17.11.35.23.56.24.41.03.7-.49.45-.81Z"/></g><g class="cls-8"><path d="m157.69,205.62c-.1.08-.25.2-.33.27-.75.51-.75.44-1.62.71-2.86.69-4.75,1.04-7.44,1.12-1.14.04-2.27-.1-3.4-.14-1.72-.08-3.45-.15-5.16-.36-1.8-.24-5.4-1.08-7.26-2.35-.19-.13-.39-.25-.58-.39-.18-.12-.35-.3-.59-.31-.82-.14-1.23,1.03-.5,1.45,1.53,1.25,3.38,1.99,5.26,2.54,2.52.83,5.18,1,7.81,1.18,1.45.07,2.9.22,4.35.15,1.95-.07,3.87-.41,5.78-.82,1.63-.32,3.83-1.09,4.3-1.58.31-.24.1-.06.52-.42.15-.14.23-.35.23-.55,0-.72-.9-1.03-1.38-.51Z"/></g><g><g class="cls-8"><path d="m188.18,188.52c-.37-.21-.7.02-.91.33-.18.2-.37.39-.57.57-.55.49-1.17.93-2.11,1.42-.67.36-1.43.6-2.37.7.07,0,.15-.02.12-.02-.43.04-.87.02-1.3,0-.08,0-.22-.01-.31-.02-.11-.02-.23-.04-.34-.06-2.27-.56-2.61-.74-4.35-1.7-1.14-.67-2.01-1.26-2.72-1.87-1-.79-1.9-1.69-2.8-2.59-.27-.23-.44-.59-.76-.75-.6-.28-1.15.53-.67,1,1.85,2.07,3.89,4.02,6.25,5.5,1.44.93,3,1.76,4.69,2.13.56.1,1.13.18,1.69.08,0,0,.01,0,.02,0,0,0,0,0,0,0,0,0,0,0,0,0,.15-.02.21-.03.14-.02.03,0,.07,0,.1-.01.79-.09,1.57-.28,2.3-.61,1.31-.67,1.78-1.16,2.86-2,.38-.31.75-.64,1.06-1.01.18-.19.54-.65,0-1.06Z"/></g><g class="cls-8"><path d="m181.73,193.24c.07,0,.11-.01.14-.02-.05,0-.09.01-.14.02,0,0,0,0,0,0Z"/></g></g><g class="cls-8"><path d="m160.4,178.59c-.03-.31-.11-1.04-.07-1.76-.02-.5-.26-.95-.53-1.36-.36-.56-.76-1.09-1.12-1.65-.19-.27-.35-.56-.5-.85-.06-.11-.11-.23-.22-.3-.07-.06-.15-.1-.24-.11-.17-.4-.34-.79-.51-1.16-.22-.49-.44-.97-.69-1.45-.09-.14-.14-.32-.29-.41-.51-.42-1.25.22-.9.79,1.59,3.11,2.67,6.28,3.51,9.97.15.53.25,1.08.46,1.59.22.4.84.39,1.05-.01.16-.32.08-.71.11-1.06.02-.75,0-1.5-.06-2.24Z"/></g><g class="cls-8"><path d="m146.72,232.84s0-.04-.01-.06c0-.03-.01-.06-.02-.08,0-.02-.01-.03-.01-.05,0-.03,0-.05-.01-.06-.02-.57-.21-1.13-.36-1.67-.38-1.66-.89-3.29-1.31-4.93-.47-1.9-1.05-3.78-1.79-5.6-.56-1.33-.68-1.9-1.63-3.16-1.06-1.37-2.25-2.42-3.25-3.22-.93-.77-1.92-1.48-2.66-2.44,0,0-.01-.02-.02-.02-.13-.17-.24-.37-.46-.42-.48-.15-.93.43-.66.86,1.34,2.01,3.42,3.33,5.01,5.11.34.4.66.8.99,1.21.16.21.3.42.41.66,0,.02.02.04.03.08.21.54,1.02,2.52,1.4,3.72.81,2.44,1.28,4.97,1.97,7.44.13.68.32,1.35.5,2.01.09.31.15.65.33.92.05.11.1.21.18.31.03.04.07.08.11.11.01,0,.02.02.03.03,0,0,0,0,.01.01.4.35,1.1.11,1.22-.4.02-.11.03-.23.01-.34Z"/></g><g><polygon class="cls-1" points="142.41 144.02 152.4 147.27 152.7 149.32 141.27 147.51 142.41 144.02"/><path d="m152.7,149.63s-.03,0-.05,0l-11.43-1.82c-.09-.01-.17-.07-.21-.14-.05-.08-.06-.17-.03-.25l1.13-3.48c.05-.16.22-.25.38-.2l10,3.24c.11.04.19.13.21.25l.3,2.05c.01.1-.02.19-.09.26-.06.06-.13.09-.21.09Zm-11.03-2.37l10.66,1.69-.21-1.45-9.53-3.09-.93,2.85Z"/></g><g><path class="cls-7" d="m154.38,109.71c-1.89-1.79-5.66-1.86-6.8.52-.09-.69-.12-.79-.57-1.39-.46-.59-1.19-.93-1.92-1.06-.51-.09-1.04-.09-1.55,0-.52.09-1.04.28-1.43.63-.4.35-.67.87-.68,1.49-1.62-.65-3.58-.39-4.98.66-1.4,1.05-2.19,2.86-2.01,4.58-.77-.14-1.58.06-2.25.46s-1.22.99-1.67,1.63c-.58.84-1.01,1.8-1.1,2.82-.08,1.02.21,2.09,1.04,2.95-2.54,1.85,2.78,8.35,3.13,8.89,1.94,2.89,5.97,6.39,11.52,6.89-2.46-1.83-4.04-4.37-4.16-5.98-1.77,1.6-3.59-.41-3.67-1.43-.1-1.37,1.02-4.37,3.99-2.1,1.33-4.52.3-5.94.32-5.99.26-.68.9-2.51,1.23-2.66.92.5,1.92.84,2.96.89,1.42.08,2.89-.41,3.9-1.47.93.62,2.11.83,3.2.58,1.08-.25,2.18-1.24,2.61-1.93,2.49-3.98.33-7.61-1.12-8.97Z"/><path d="m145.11,139.08s-.02,0-.03,0c-5.52-.5-9.69-3.95-11.75-7.02-.03-.05-.11-.15-.22-.29-.98-1.31-3.98-5.28-3.62-7.68.07-.45.24-.82.53-1.11-.68-.82-1-1.86-.91-2.95.08-.99.47-1.99,1.15-2.97.53-.76,1.12-1.34,1.76-1.72.66-.39,1.39-.58,2.08-.54-.05-1.71.77-3.44,2.15-4.48,1.38-1.04,3.26-1.35,4.9-.83.1-.51.35-.97.74-1.31.4-.35.94-.59,1.58-.7.55-.1,1.11-.1,1.66,0,.9.16,1.65.58,2.11,1.17.26.34.4.54.48.77.53-.64,1.3-1.07,2.25-1.25,1.62-.3,3.47.23,4.62,1.31,1.53,1.44,3.74,5.25,1.17,9.36-.43.69-1.58,1.78-2.8,2.06-1.08.25-2.26.07-3.22-.49-1.01.95-2.47,1.47-3.97,1.39-.96-.05-1.93-.33-2.89-.82-.25.39-.69,1.56-.87,2.04-.03.09-.06.17-.09.24.55,1.29.42,3.44-.35,6.08-.03.1-.1.17-.2.2-.1.03-.2.01-.28-.05-.97-.74-1.77-.94-2.4-.6-.8.43-1.15,1.7-1.1,2.44.03.46.57,1.3,1.37,1.62.62.25,1.22.12,1.79-.4.09-.08.21-.1.32-.06.11.04.18.14.19.26.11,1.41,1.56,3.9,4.04,5.75.11.08.15.23.1.35-.05.12-.16.2-.29.2Zm-11.2-23.68c-.52,0-1.07.16-1.58.46-.57.34-1.09.85-1.57,1.54-.62.89-.97,1.79-1.04,2.67-.08,1.02.26,1.98.96,2.71.06.06.09.15.08.24,0,.09-.05.17-.12.22-.3.22-.48.52-.54.93-.21,1.42.97,3.85,3.51,7.22.12.16.2.27.24.32,1.85,2.76,5.46,5.84,10.25,6.62-1.72-1.52-3.02-3.44-3.36-4.99-.63.39-1.32.46-2,.19-.98-.4-1.7-1.43-1.75-2.14-.07-.9.33-2.44,1.42-3.02.54-.29,1.43-.44,2.7.4.86-3.15.53-4.67.24-5.31-.03-.07-.08-.17-.03-.3.04-.1.08-.22.13-.35.66-1.76.95-2.34,1.25-2.48.09-.04.19-.04.28,0,.95.52,1.9.81,2.83.86,1.4.08,2.78-.44,3.67-1.38.1-.11.27-.13.39-.04.85.57,1.96.77,2.96.53,1.04-.24,2.06-1.21,2.42-1.79,2.36-3.77.33-7.27-1.07-8.59h0c-1.01-.95-2.65-1.42-4.09-1.15-1.04.19-1.84.75-2.23,1.58-.06.12-.19.19-.32.17-.13-.02-.24-.13-.26-.26-.09-.65-.09-.7-.51-1.24-.37-.48-.99-.81-1.73-.95-.48-.08-.97-.09-1.44,0-.54.09-.97.28-1.29.56-.36.31-.56.77-.58,1.27,0,.1-.05.19-.14.25-.08.06-.19.07-.28.03-1.53-.61-3.36-.37-4.68.62-1.32.99-2.06,2.68-1.89,4.3.01.1-.03.19-.1.26-.07.07-.17.09-.26.08-.15-.03-.3-.04-.46-.04Z"/></g><g class="cls-8"><path d="m152.78,120.55c-.33.13-.86.02-1.22.03-.36,0-.87.02-1.22-.13-.44-.38-1.25-.1-1.2.5-.85.68-1.84.72-2.95.68-.7-.02-1.57.02-2.24-.26-.06-.15-.16-.28-.3-.36-.11-.06-.22-.09-.33-.09-.58-.67-1.54.26-1.05.95-.17.25-.34.51-.5.77-.48.78.75,1.5,1.23.72.14-.22.28-.44.42-.66.85.33,1.87.34,2.77.36,1.53.05,2.91-.12,4.05-1.17.23.05.47.07.69.09.37.04.74,0,1.12,0,.4,0,.74.08,1.12-.06.85-.33.48-1.71-.38-1.37Z"/></g><path d="m151.93,118.43c-.44,0-.87-.09-1.28-.27-.15-.07-.22-.25-.16-.4.07-.15.25-.22.4-.16.89.39,1.94.25,2.68-.38.77-.65,1.08-1.7.79-2.68-.05-.16.04-.33.21-.38.16-.05.33.04.38.21.36,1.21-.02,2.51-.98,3.32-.57.49-1.3.74-2.04.74Z"/><g><path class="cls-1" d="m6.07,11.41c0-.98-.79-1.77-1.77-1.77s-1.77.79-1.77,1.77.79,1.77,1.77,1.77,1.77-.79,1.77-1.77Z"/><path d="m4.31,13.46c-1.13,0-2.05-.92-2.05-2.05s.92-2.05,2.05-2.05,2.05.92,2.05,2.05-.92,2.05-2.05,2.05Zm0-3.53c-.82,0-1.49.67-1.49,1.49s.67,1.49,1.49,1.49,1.49-.67,1.49-1.49-.67-1.49-1.49-1.49Z"/></g><path d="m104.61,166.97s-.03,0-.05,0c-.74-.13-1.49-.28-2.22-.47-.15-.04-.24-.19-.21-.34.04-.15.19-.24.34-.21.72.18,1.45.33,2.18.46.15.03.26.17.23.32-.02.14-.14.23-.28.23Zm-4.36-1.08s-.06,0-.09-.01c-.71-.23-1.43-.49-2.13-.78-.14-.06-.21-.22-.15-.37.06-.14.22-.21.37-.15.69.28,1.39.54,2.09.76.15.05.23.21.18.35-.04.12-.15.19-.27.19Zm-4.16-1.69s-.08,0-.12-.03c-.68-.33-1.35-.69-2-1.07-.13-.08-.18-.25-.1-.38.08-.13.25-.18.38-.1.64.37,1.3.72,1.97,1.05.14.07.2.24.13.38-.05.1-.15.16-.25.16Zm-3.89-2.25c-.05,0-.11-.02-.16-.05-.63-.42-1.24-.87-1.84-1.33-.12-.1-.14-.27-.05-.39.1-.12.27-.14.39-.05.58.45,1.19.89,1.81,1.31.13.09.16.26.08.39-.05.08-.14.12-.23.12Zm-3.55-2.76c-.07,0-.13-.02-.19-.07-.56-.5-1.11-1.03-1.64-1.57-.11-.11-.11-.29,0-.4.11-.11.29-.11.4,0,.52.53,1.06,1.05,1.61,1.54.12.1.13.28.02.4-.06.06-.13.09-.21.09Zm-3.14-3.22c-.08,0-.16-.03-.21-.1-.49-.57-.96-1.16-1.42-1.77-.09-.12-.07-.3.05-.39.12-.09.3-.07.39.06.45.6.92,1.18,1.4,1.74.1.12.09.3-.03.4-.05.05-.12.07-.18.07Zm-2.71-3.59c-.09,0-.18-.04-.23-.13-.41-.62-.82-1.27-1.2-1.92-.08-.13-.03-.31.1-.38.13-.08.31-.03.38.1.38.64.78,1.28,1.18,1.89.09.13.05.3-.08.39-.05.03-.1.05-.16.05Zm-2.28-3.88c-.1,0-.2-.06-.25-.15-.07-.13-.13-.26-.2-.39-.27-.53-.53-1.09-.79-1.65-.06-.14,0-.31.14-.37.14-.06.31,0,.37.14.25.55.51,1.1.78,1.63.06.13.13.26.2.38.07.14.02.31-.12.38-.04.02-.09.03-.13.03Zm-1.87-4.09c-.11,0-.22-.07-.26-.18-.28-.69-.54-1.4-.8-2.12-.05-.15.02-.31.17-.36.15-.05.31.02.36.17.25.71.52,1.41.79,2.09.06.14-.01.31-.16.37-.03.01-.07.02-.1.02Zm-1.5-4.24c-.12,0-.23-.08-.27-.2-.22-.7-.43-1.43-.63-2.17-.04-.15.05-.3.2-.35.15-.04.3.05.35.2.2.73.41,1.45.63,2.15.05.15-.04.31-.18.35-.03,0-.06.01-.08.01Zm-1.19-4.34c-.13,0-.24-.09-.27-.22-.17-.72-.34-1.46-.49-2.2-.03-.15.07-.3.22-.33.15-.03.3.07.33.22.15.74.32,1.48.49,2.19.04.15-.06.3-.21.34-.02,0-.04,0-.07,0Zm-.92-4.4c-.13,0-.25-.1-.28-.23l-.02-.13c-.12-.69-.24-1.39-.35-2.1-.02-.15.08-.3.23-.32.15-.02.3.08.32.23.11.7.23,1.4.35,2.08l.02.13c.03.15-.07.3-.23.33-.02,0-.03,0-.05,0Zm-.7-4.44c-.14,0-.26-.1-.28-.24-.1-.73-.19-1.48-.28-2.24-.02-.15.09-.29.25-.31.15-.02.29.09.31.25.09.75.18,1.5.28,2.23.02.15-.09.3-.24.32-.01,0-.03,0-.04,0Zm-.51-4.47c-.14,0-.27-.11-.28-.25-.07-.73-.13-1.48-.19-2.25-.01-.15.1-.29.26-.3.15-.01.29.1.3.26.06.76.12,1.51.19,2.24.01.15-.1.29-.25.31,0,0-.02,0-.03,0Zm-.35-4.48c-.15,0-.27-.11-.28-.26-.05-.73-.09-1.49-.13-2.25,0-.16.11-.29.27-.29.15,0,.29.11.29.27.04.76.08,1.51.13,2.24,0,.15-.11.29-.26.3,0,0-.01,0-.02,0Zm-.23-4.49c-.15,0-.27-.12-.28-.27-.01-.35-.03-.69-.04-1.04-.01-.4-.03-.81-.04-1.21,0-.16.12-.28.27-.29.15-.01.28.12.29.27.01.4.02.81.04,1.21.01.35.02.69.04,1.04,0,.16-.11.29-.27.29,0,0,0,0-.01,0Zm-.12-4.5c-.15,0-.28-.12-.28-.28-.01-.75-.02-1.51-.02-2.25,0-.16.13-.28.28-.28h0c.16,0,.28.13.28.28,0,.74,0,1.5.02,2.25,0,.16-.12.28-.28.29h0Zm0-4.5h0c-.16,0-.28-.13-.28-.28,0-.75.02-1.51.04-2.25,0-.15.13-.27.28-.27h0c.16,0,.28.13.27.29-.02.74-.03,1.5-.04,2.25,0,.15-.13.28-.28.28Zm.1-4.5s0,0-.01,0c-.16,0-.28-.14-.27-.29.03-.74.06-1.5.09-2.25,0-.16.14-.27.29-.27.16,0,.27.14.27.29-.04.75-.07,1.5-.09,2.24,0,.15-.13.27-.28.27Zm.22-4.49s-.01,0-.02,0c-.15,0-.27-.14-.26-.3.04-.71.09-1.44.14-2.15v-.1c.02-.15.15-.27.31-.26.15.01.27.15.26.3v.09c-.06.71-.11,1.43-.15,2.15,0,.15-.13.26-.28.26Zm.33-4.49s-.02,0-.03,0c-.15-.01-.27-.14-.25-.29,0,0,0-.02,0-.03.02-.15.16-.26.31-.25.15.02.27.16.25.31-.02.14-.14.26-.28.26Z"/><g><path d="m4.7,65.85h0c-.16,0-.28-.13-.28-.28l.1-7.5c0-.15.13-.28.28-.28h0c.16,0,.28.13.28.28l-.1,7.5c0,.15-.13.28-.28.28Z"/><path d="m.28,65.85h0c-.16,0-.28-.13-.28-.29l.1-4.97c0-.16.13-.28.29-.28.16,0,.28.13.28.29l-.1,4.97c0,.15-.13.28-.28.28Z"/></g><g><g><rect class="cls-1" x="14.01" y="21.74" width="106.82" height="66.17"/><path d="m120.83,88.19H14.01c-.16,0-.28-.13-.28-.28V21.74c0-.16.13-.28.28-.28h106.82c.16,0,.28.13.28.28v66.17c0,.16-.13.28-.28.28Zm-106.54-.56h106.26V22.02H14.29v65.6Z"/></g><g><rect class="cls-1" x="14.01" y="19.73" width="106.82" height="6.64"/><path d="m120.83,26.65H14.01c-.16,0-.28-.13-.28-.28v-6.64c0-.16.13-.28.28-.28h106.82c.16,0,.28.13.28.28v6.64c0,.16-.13.28-.28.28Zm-106.54-.56h106.26v-6.08H14.29v6.08Z"/></g><g><rect class="cls-1" x="75.73" y="36.89" width="30.73" height="17.65"/><path d="m106.47,54.83h-30.73c-.16,0-.28-.13-.28-.28v-17.65c0-.16.13-.28.28-.28h30.73c.16,0,.28.13.28.28v17.65c0,.16-.13.28-.28.28Zm-30.45-.56h30.17v-17.09h-30.17v17.09Z"/></g><g><g><rect class="cls-1" x="25.47" y="41.59" width="4.99" height="30.62"/><path d="m30.46,72.49h-4.99c-.16,0-.28-.13-.28-.28v-30.62c0-.16.13-.28.28-.28h4.99c.16,0,.28.13.28.28v30.62c0,.16-.13.28-.28.28Zm-4.71-.56h4.43v-30.06h-4.43v30.06Z"/></g><g><g><rect class="cls-3" x="25.47" y="56.05" width="4.99" height="16.16"/><path d="m30.46,72.49h-4.99c-.16,0-.28-.13-.28-.28v-16.16c0-.16.13-.28.28-.28h4.99c.16,0,.28.13.28.28v16.16c0,.16-.13.28-.28.28Zm-4.71-.56h4.43v-15.59h-4.43v15.59Z"/></g><g><rect class="cls-1" x="35.45" y="41.59" width="4.99" height="30.62"/><path d="m40.44,72.49h-4.99c-.16,0-.28-.13-.28-.28v-30.62c0-.16.13-.28.28-.28h4.99c.16,0,.28.13.28.28v30.62c0,.16-.13.28-.28.28Zm-4.71-.56h4.43v-30.06h-4.43v30.06Z"/></g><g><rect class="cls-1" x="45.42" y="41.59" width="4.99" height="30.62"/><path d="m50.41,72.49h-4.99c-.16,0-.28-.13-.28-.28v-30.62c0-.16.13-.28.28-.28h4.99c.16,0,.28.13.28.28v30.62c0,.16-.13.28-.28.28Zm-4.71-.56h4.43v-30.06h-4.43v30.06Z"/></g><g><rect class="cls-1" x="55.39" y="41.59" width="4.99" height="30.62"/><path d="m60.38,72.49h-4.99c-.16,0-.28-.13-.28-.28v-30.62c0-.16.13-.28.28-.28h4.99c.16,0,.28.13.28.28v30.62c0,.16-.13.28-.28.28Zm-4.71-.56h4.43v-30.06h-4.43v30.06Z"/></g><g><rect class="cls-3" x="35.45" y="67.65" width="4.99" height="4.55"/><path d="m40.44,72.49h-4.99c-.16,0-.28-.13-.28-.28v-4.56c0-.16.13-.28.28-.28h4.99c.16,0,.28.13.28.28v4.56c0,.16-.13.28-.28.28Zm-4.71-.56h4.43v-3.99h-4.43v3.99Z"/></g><g><rect class="cls-3" x="45.42" y="64.13" width="4.99" height="8.08"/><path d="m50.41,72.49h-4.99c-.16,0-.28-.13-.28-.28v-8.08c0-.16.13-.28.28-.28h4.99c.16,0,.28.13.28.28v8.08c0,.16-.13.28-.28.28Zm-4.71-.56h4.43v-7.52h-4.43v7.52Z"/></g><g><rect class="cls-3" x="55.39" y="56.9" width="4.99" height="15.47"/><path d="m60.38,72.65h-4.99c-.16,0-.28-.13-.28-.28v-15.47c0-.16.13-.28.28-.28h4.99c.16,0,.28.13.28.28v15.47c0,.16-.13.28-.28.28Zm-4.71-.56h4.43v-14.91h-4.43v14.91Z"/></g></g></g><path d="m93.28,65.35h-17.55c-.16,0-.28-.13-.28-.28s.13-.28.28-.28h17.55c.16,0,.28.13.28.28s-.13.28-.28.28Z"/><path d="m88.69,72.93h-12.96c-.16,0-.28-.13-.28-.28s.13-.28.28-.28h12.96c.16,0,.28.13.28.28s-.13.28-.28.28Z"/><g class="cls-8"><path d="m120.51,26.54c-.12-.07-.26-.11-.4-.11-.11.01-.21.02-.32.04.07,0,.14-.02.21-.03-.95.07-.74.05-1.53,0-1.4-.08-2.8-.02-4.2-.1-1.92-.04-3.83-.02-5.75-.04-2.27.05-4.53.12-6.8.24-2.22.02-4.43.05-6.65.01-2.92,0-5.83.09-8.75.09-1.68,0-3.36-.21-5.04-.16-3.4.08-6.81.2-10.21.29-3.35.01-6.7.04-10.05.02-2.42,0-4.84-.13-7.27-.12-2.6.05-5.2.24-7.8.2-2.34-.02-4.67-.21-7-.35-2.12-.06-4.23.03-6.35.07-2.21.02-4.42.01-6.63-.02-2.26-.1-4.52-.28-6.79-.34-.95,0-1.91.06-2.86.08-.53.01-1.06.05-1.58.09-.11,0-.21.02-.3.07-.25.09-.41.32-.46.57-.12.15-.16.35-.12.53-.17.41.08.99.63.98,1.03.05,2.05.04,3.08.08,1.06.04,2.11.12,3.17.1,2.15-.07,4.3-.27,6.46-.26,2.91.06,5.82-.07,8.72-.08,2.42.08,4.84.22,7.26.16.53-.02,1.07-.06,1.6-.09.38.02.77.03,1.15.04,2.63.08,5.26-.1,7.89-.13,3.64.06,7.29.19,10.94.16,1.96,0,3.91-.08,5.87-.06,2.05-.02,4.09-.12,6.14-.15,2.06-.04,4.12-.15,6.17-.13,2.13.1,4.26.1,6.38.14,2.25.07,4.5-.05,6.75-.02,1.75.02,3.5-.04,5.25-.03,1.35-.03,2.69-.17,4.04-.19,1.85-.05,3.71-.13,5.56-.07,1.36,0,2.72-.02,4.08.05,1.35.08,3.54-.01,4.15-.02.28,0,.57,0,.85-.03.23,0,.46-.07.63-.24.36-.35.28-.99-.16-1.24Z"/></g></g><g><g><path class="cls-1" d="m112.28,70.17c-.45-.29-.91-.57-1.37-.85,3.3-6.02,9.59-7.84,13.48-8.12,3.7.12,6.24.12,10.63,2.67,1.11.64,2.84,2.24,4.3,4.65-.53.34-1.06.68-1.59,1.02-1.29.83-2.58,1.67-3.87,2.51-1.78-3.28-5.31-4.95-9.49-4.95s-6.9,2.75-8.37,5.7c-1.21-.92-2.45-1.8-3.72-2.62Z"/><path d="m116,73.07c-.06,0-.12-.02-.17-.06-1.34-1.01-2.55-1.87-3.71-2.61h0c-.42-.27-.86-.55-1.36-.85-.13-.08-.17-.24-.1-.38,3.86-7.03,11.47-8.1,13.71-8.26,0,0,.02,0,.03,0h.35c3.54.12,6.1.2,10.41,2.7,1.14.66,2.89,2.25,4.4,4.75.08.13.04.3-.09.38-.53.34-1.06.68-1.59,1.02l-.75.48c-1.04.67-2.08,1.35-3.12,2.02-.07.04-.15.06-.22.04-.08-.02-.14-.07-.18-.14-1.66-3.05-5.03-4.81-9.24-4.81-4.66,0-7.09,3.47-8.12,5.54-.04.07-.11.13-.19.15-.02,0-.04,0-.06,0Zm-3.57-3.14c1.09.7,2.23,1.5,3.47,2.44,1.17-2.21,3.73-5.56,8.47-5.56,4.3,0,7.78,1.76,9.58,4.84.95-.62,1.91-1.24,2.87-1.86l.75-.48c.45-.29.91-.58,1.36-.88-1.42-2.27-3.06-3.74-4.05-4.32-4.19-2.43-6.69-2.51-10.14-2.62h-.34c-2.16.15-9.36,1.17-13.11,7.73.41.25.79.49,1.14.72h0Z"/></g><g><path class="cls-4" d="m127.66,92.45c-.24-1.4-.51-2.8-.8-4.2,1.05-.11,2.13-.29,3.11-.69.9-.37,1.72-1,2.4-1.7,1.44-1.49,2.43-3.46,2.71-5.54.16-1.19.06-2.37,0-3.57-.03-.71-.12-1.37-.26-2,2.16-.52,4.28-1.2,6.44-1.68.9,3.22,1.06,7.17-.38,11.74-2.02,6.39-7.96,8.75-12.79,9.52-.14-.62-.29-1.25-.45-1.87Z"/><path d="m128.1,94.59c-.13,0-.25-.09-.27-.22-.13-.59-.27-1.2-.44-1.85,0,0,0-.02,0-.02-.23-1.34-.49-2.71-.8-4.18-.02-.08,0-.16.05-.22.05-.06.12-.11.2-.11,1.26-.13,2.23-.34,3.04-.67.78-.32,1.58-.89,2.31-1.64,1.42-1.47,2.36-3.38,2.64-5.39.14-.98.08-1.94.03-2.96,0-.18-.02-.37-.03-.55-.03-.66-.12-1.32-.25-1.96-.03-.15.06-.3.21-.33.98-.23,1.97-.51,2.92-.77,1.15-.32,2.34-.65,3.52-.91.15-.03.29.05.33.2,1.05,3.76.92,7.76-.38,11.9-2.1,6.65-8.24,8.95-13.02,9.71-.01,0-.03,0-.04,0Zm-.17-2.21c.15.56.27,1.09.39,1.6,4.58-.78,10.33-3.03,12.31-9.28,1.24-3.93,1.39-7.74.45-11.32-1.09.25-2.18.55-3.24.84-.88.24-1.78.49-2.68.71.11.58.18,1.18.21,1.78,0,.18.02.37.03.55.05,1,.11,2.04-.04,3.07-.29,2.12-1.28,4.15-2.79,5.7-.79.82-1.63,1.41-2.5,1.77-.79.32-1.71.54-2.88.68.28,1.37.53,2.64.74,3.89Z"/></g><g><path class="cls-1" d="m109.12,74.41c1.96.33,3.91.68,5.85,1.15-.17.67-.28,1.31-.32,1.88-.03.47,0,1.24.11,1.86.19,1.12.54,2.24.97,3.28.77,1.89,1.96,3.74,3.79,4.67,1.05.53,2.17.81,3.33.95.16.02.32.04.48.05-.08.72-.15,1.45-.23,2.17-.15,1.4-.31,2.79-.47,4.19-.12,0-.24-.02-.35-.03-9.24-.8-13.56-10.62-13.56-15.77,0-1.61.14-3.07.39-4.41Z"/><path d="m122.64,94.89s-.01,0-.02,0c-.12,0-.24-.02-.35-.03-5.28-.45-8.6-3.71-10.45-6.37-2.04-2.93-3.37-6.72-3.37-9.68,0-1.56.13-3.07.4-4.46.03-.15.17-.25.32-.22,1.98.34,3.91.68,5.87,1.15.07.02.14.06.17.13.04.06.05.14.03.21-.16.65-.27,1.26-.31,1.83-.03.47.01,1.23.11,1.79.18,1.02.5,2.11.95,3.23.9,2.23,2.13,3.75,3.66,4.52.93.47,1.96.76,3.24.92.16.02.31.04.47.05.07,0,.14.04.19.1.05.06.07.13.06.21l-.04.37c-.06.6-.13,1.2-.19,1.8-.15,1.38-.31,2.76-.46,4.14v.04c-.02.14-.14.25-.28.25Zm-13.29-20.16c-.23,1.29-.34,2.66-.34,4.09,0,2.16.85,5.91,3.26,9.36,1.79,2.56,4.98,5.7,10.04,6.13.02,0,.05,0,.07,0,.15-1.31.29-2.61.44-3.92.06-.6.13-1.2.19-1.8v-.09c-.06,0-.13-.02-.19-.02-1.34-.17-2.43-.48-3.42-.98-1.65-.83-2.97-2.45-3.93-4.81-.47-1.15-.8-2.28-.98-3.34-.11-.61-.16-1.42-.12-1.93.04-.52.12-1.07.26-1.65-1.76-.42-3.5-.73-5.28-1.03Z"/></g><path d="m120.58,93.36s-.05,0-.07-.03c-.04-.04-.04-.1,0-.13l1.18-1.15s.1-.04.13,0c.04.04.04.1,0,.13l-1.18,1.15s-.04.03-.07.03Z"/><path d="m119.01,93.05s-.05-.01-.07-.03c-.03-.04-.03-.1.01-.13,1.06-.9,2.11-1.85,3.11-2.82.04-.04.1-.04.13,0,.04.04.04.1,0,.13-1,.98-2.05,1.93-3.12,2.83-.02.01-.04.02-.06.02Z"/><path d="m117.6,92.45s-.05-.01-.07-.03c-.03-.04-.03-.1,0-.13l3.9-3.51s.1-.03.13,0c.03.04.03.1,0,.13l-3.9,3.51s-.04.02-.06.02Z"/><path d="m116.06,91.45s-.06-.01-.07-.04c-.03-.04-.02-.1.02-.13,1.23-.95,2.43-1.97,3.58-3.03.04-.04.1-.03.13,0,.04.04.03.1,0,.13-1.15,1.06-2.36,2.08-3.59,3.04-.02.01-.04.02-.06.02Z"/><path d="m114.8,90.29s-.06-.01-.08-.04c-.03-.04-.02-.1.03-.13,1.26-.85,2.49-1.77,3.65-2.73.04-.03.1-.03.13.01.03.04.03.1-.01.13-1.17.97-2.41,1.89-3.67,2.75-.02.01-.03.02-.05.02Z"/><path d="m113.67,89.14s-.06-.01-.08-.04c-.03-.04-.02-.1.02-.13,1.18-.82,2.35-1.68,3.48-2.55.04-.03.1-.02.13.02.03.04.02.1-.02.13-1.14.88-2.31,1.74-3.49,2.56-.02.01-.03.02-.05.02Z"/><path d="m112.71,87.82s-.06-.02-.08-.04c-.03-.04-.01-.1.03-.13,1.19-.75,2.38-1.52,3.56-2.3.04-.03.1-.02.13.03.03.04.02.1-.03.13-1.18.78-2.37,1.55-3.56,2.3-.02,0-.03.01-.05.01Z"/><path d="m111.91,86.36s-.06-.02-.08-.05c-.03-.04-.01-.1.03-.13l3.37-1.99s.1-.01.13.03c.03.04.01.1-.03.13l-3.37,1.99s-.03.01-.05.01Z"/><path d="m111.3,85.03s-.06-.02-.08-.05c-.03-.05,0-.1.04-.13l3.46-1.92s.1,0,.13.04c.03.05,0,.1-.04.13l-3.46,1.92s-.03.01-.05.01Z"/><path d="m110.65,83.55s-.07-.02-.08-.05c-.02-.05,0-.1.04-.13l3.48-1.91s.1,0,.13.04c.02.05,0,.1-.04.13l-3.48,1.91s-.03.01-.05.01Z"/><path d="m110.14,82.12s-.06-.02-.08-.05c-.03-.04-.01-.1.03-.13,1.23-.72,2.49-1.42,3.74-2.09.05-.02.1,0,.13.04.02.05,0,.1-.04.13-1.25.67-2.51,1.37-3.74,2.09-.01,0-.03.01-.05.01Z"/><path d="m109.83,80.41s-.07-.02-.08-.05c-.02-.05,0-.1.04-.13l3.91-1.89s.1,0,.13.04c.02.05,0,.1-.04.13l-3.91,1.89s-.03,0-.04,0Z"/><path d="m109.8,78.81s-.07-.02-.08-.05c-.02-.05,0-.1.05-.12,1.33-.62,2.66-1.27,3.98-1.92.05-.02.1,0,.13.04.02.05,0,.1-.04.13-1.31.65-2.65,1.3-3.98,1.93-.01,0-.03,0-.04,0Z"/><path d="m109.81,77.23s-.07-.02-.09-.06c-.02-.05,0-.1.05-.12.86-.38,1.7-.82,2.51-1.29.04-.03.1-.01.13.03.03.04.01.1-.03.13-.82.47-1.67.91-2.53,1.3-.01,0-.03,0-.04,0Z"/><path d="m109.89,75.87s-.07-.02-.09-.06c-.02-.05,0-.1.05-.12l.71-.31s.1,0,.12.05c.02.05,0,.1-.05.12l-.71.31s-.03,0-.04,0Z"/><g class="cls-8"><path d="m122.83,93.67c.05-.13.06-.28,0-.4-.1-.27-.43-.37-.7-.3-.4-.02-.73-.03-1.71-.28-1.12-.34-1.88-.73-3.06-1.42-1.12-.67-1.77-1.18-2.71-2.15-.19-.21-.37-.43-.55-.64-.42-.44-1.24-1.92-1.72-2.98-.49-.97-.55-1.1-.9-2.03-.81-2.06-1.19-3.98-1.2-5.28-.02-1.24-.04-1.76.22-2.76.12-.39-.22-.83-.62-.81-.03-.35-.5-.53-.75-.27-.02.02-.03.03-.04.05-.06-.02-.12-.04-.18-.04.08.58,0,1.14-.13,1.74-.15.69-.13,1.4-.12,2.1,0,.65-.12,1.5.01,2.14.05.25.18.49.32.72-.01-.05-.03-.1-.06-.14-.02-.04-.04-.09-.07-.13-.1-.39-.11-1.54-.09-2.35.02-.46.05-.85.1-1.2,0,.04.02.07.04.11-.07,1-.04,2.01.14,3,.07.44.18.88.3,1.31.04.07.07.13.1.2.09.21.15.43.16.64.08.24.17.49.26.73.33.91.66,1.81,1.12,2.66.46.89.87,1.81,1.43,2.65.61.9,1.36,1.71,2.13,2.48,1.2,1.24,2.93,2.36,4.11,2.73.42.13.85.14,1.29.18.05,0,.1.02.15.03.29.07.57.19.86.27.25.07.5.09.74.18.18.08.1.08.38.17.52.16.99-.44.74-.91Z"/></g><g class="cls-8"><path d="m111.4,69.09c.5-1.35,1.25-2.69,2.35-3.65.49-.48,1.22.25.74.74-.65.48-1.2,1.74-1.38,2.17-.18.46-.37.92-.5,1.4-.3.99-1.76.51-1.21-.67Z"/></g><g class="cls-8"><path d="m128.24,92.79c.95.09,1-.02,1.93-.2.8-.21,1.6-.39,2.39-.61.67-.16,1.68-.57,1.97-.64.49-.09.74.63.3.87-.49.26-.96.55-1.47.77-.42.18-.87.29-1.31.44-.93.37-1.91.64-2.91.72-.3.02-.6.01-.9-.03-.14-.02-.29-.04-.4-.14-.5-.35-.21-1.18.39-1.16Z"/></g></g><g><path class="cls-1" d="m157.71,26.91l-.66-2.24,1.4-2.02-3.44-2.44c-.44.74-.89,1.48-1.33,2.22-.02.04-.05.08-.09.11-.05.03-.12.03-.18.03-.77-.01-1.53-.02-2.3-.04-.38-.73-.75-1.43-1.16-2.1-.03-.05-.07-.11-.13-.12-.06-.01-.12.02-.17.05l-2.73,1.68s-.05.03-.06.05c-.04.06,0,.14.03.2.34.62.75,1.2,1.22,1.74-.41.78-.85,1.5-1.32,2.19-.11.17-.24.34-.43.4-.16.05-.33,0-.49-.04-.64-.18-1.28-.39-1.9-.63-.53,1.29-.64,2.76-.29,4.12.05.1,2.43-.24,2.43-.24l1.42,2.51-1.14,1.91,2.61,1.94,1.36-2.02,2.39.05.92,2.14,3.57-1.26-.86-2.19,1.28-2.12,2.42-.2.08-3.01-2.43-.65Zm-4.11,1.14c.03.11-.07.32-.11.41-.03.08-.07.16-.12.24-.09.14-.21.28-.33.39-.26.24-.54.42-.87.54-.13.05-.27.08-.41.11-.12.02-.23.03-.36.02-.08,0-.15-.03-.23-.03.21,0-.02,0-.1-.02-.37-.11-.73-.41-.9-.75-.11-.21-.2-.44-.21-.67,0-.21.05-.43.13-.63.12-.28.25-.56.42-.81.19-.28.43-.57.74-.73.31-.16.64-.18.94-.07.12-.06.27-.08.39-.03.22.09.41.19.57.38.15.19.25.37.34.59.03.07.05.14.07.21.01.04.02.09.02.13,0,.07.02.13.03.2,0-.02,0-.03,0-.05,0-.06,0-.06,0,0,.01.07.02.14.03.2,0,.03,0,.07,0,.1,0,.09,0,.18-.03.26Z"/><path d="m147.22,29.59s-.01,0-.02,0c-.04-.01-.07-.06-.05-.1.68-2.38,1.49-4.76,2.39-7.06.02-.04.06-.06.1-.05.04.02.06.06.05.1-.9,2.3-1.71,4.67-2.39,7.04-.01.04-.04.06-.08.06Z"/><path d="m148.27,29.97s-.01,0-.02,0c-.04-.01-.07-.06-.06-.1.63-2.25,1.46-4.45,2.47-6.55.02-.04.07-.06.11-.04s.06.07.04.11c-1.01,2.09-1.84,4.28-2.46,6.52,0,.04-.04.06-.08.06Z"/><path d="m147.88,34.28s-.02,0-.03,0c-.04-.02-.06-.06-.04-.1l1.73-4.27s.06-.06.1-.04c.04.02.06.06.04.1l-1.73,4.27s-.04.05-.07.05Z"/><path d="m150.15,33.37s-.02,0-.03,0c-.04-.02-.06-.06-.05-.1l.97-2.45s.06-.06.1-.05c.04.02.06.06.05.1l-.97,2.45s-.04.05-.07.05Z"/><path d="m151.96,25.29s-.02,0-.02,0c-.04-.01-.07-.06-.05-.1l.46-1.5s.06-.07.1-.05c.04.01.07.06.05.1l-.46,1.5s-.04.06-.08.06Z"/><path d="m153.78,25.68s-.02,0-.03,0c-.04-.02-.06-.06-.05-.1.47-1.29,1.01-2.57,1.61-3.8.02-.04.07-.06.11-.04.04.02.06.07.04.11-.6,1.23-1.14,2.5-1.61,3.79-.01.03-.04.05-.08.05Z"/><path d="m151.96,33.39s-.02,0-.03,0c-.04-.02-.06-.07-.04-.11l4.4-9.53s.07-.06.11-.04c.04.02.06.07.04.11l-4.4,9.53s-.04.05-.07.05Z"/><path d="m153.72,33.77s-.02,0-.03,0c-.04-.02-.06-.07-.04-.11l2.95-6.48s.07-.06.11-.04c.04.02.06.07.04.11l-2.95,6.48s-.04.05-.07.05Z"/><path d="m156.86,30.53s-.03,0-.04,0c-.04-.02-.05-.07-.03-.11l1.3-2.41s.07-.05.11-.03c.04.02.05.07.03.11l-1.3,2.41s-.04.04-.07.04Z"/><path d="m154.68,35.09s-.02,0-.04,0c-.04-.02-.06-.07-.04-.11l.59-1.2s.07-.06.11-.04c.04.02.06.07.04.11l-.59,1.2s-.04.04-.07.04Z"/><path d="m144.75,29.03s-.02,0-.03,0c-.04-.02-.06-.07-.04-.11l.8-1.68s.07-.06.11-.04c.04.02.06.07.04.11l-.8,1.68s-.04.05-.07.05Z"/><path d="m148.1,22.71s-.03,0-.04,0c-.04-.02-.05-.07-.03-.11l.59-1.07s.07-.05.11-.03c.04.02.05.07.03.11l-.59,1.07s-.04.04-.07.04Z"/><g class="cls-8"><path d="m154.3,28.5c-.03-.38-.59-.41-.68-.05-.11.35-.07.29-.44.66-.36.29-.23.21-.79.42-.52.16-.31.13-.75.13-.06-.01-.12-.03-.18-.05-.21-.08-.15-.04-.56-.27-.17-.09-.32-.25-.52-.26-.59-.11-.89.77-.36,1.07.93.65,1.87.95,2.94.41.55-.31.95-.83,1.15-1.43.09-.2.2-.41.19-.62Z"/></g><g class="cls-8"><path d="m155.91,34.55c-.35.13-.47.22-1.13.34-.31.1-.69.05-.96.26-.56.41-.1,1.34.56,1.14.78-.17,1.68-.2,2.29-.79.48-.55-.13-1.27-.75-.95Z"/></g><g class="cls-8"><path d="m160.35,29.36s0-.01,0-.02c0,0,0,.01,0,.02,0-.13-.03-.27-.09-.38-.27-.52-1.06-.43-1.25.1-.01.02-.03.05-.04.09-.05.1-.09.22-.13.32-.04.08-.08.2-.11.26-.07.12-.1.25-.1.39,0,.88,1.23,1.05,1.46.2.12-.27.21-.55.25-.85,0-.04.01-.09.02-.13Z"/></g><path d="m153.63,36.56c-.1,0-.19-.06-.22-.15-.27-.68-.52-1.32-.92-1.97-.76.09-1.52.05-2.25-.02-.21.39-.42.78-.64,1.2-.12.23-.25.48-.38.73-.06.11-.19.16-.3.11-1.15-.45-2.16-1.19-2.9-2.14-.07-.08-.07-.2,0-.29.39-.56.8-1.13,1.24-1.83-.46-.61-.87-1.34-1.25-2.22-.18.04-.35.07-.53.11-.56.12-1.14.24-1.76.33-.12.02-.23-.06-.27-.18-.35-1.31-.25-2.8.29-4.41.04-.12.16-.19.29-.16.79.2,1.6.41,2.45.61.34-.74.77-1.42,1.21-2.14-.39-.52-.82-1.13-1.21-1.85-.05-.1-.03-.22.05-.29.86-.78,1.94-1.47,3.21-2.03.11-.05.25,0,.31.1.39.7.75,1.44,1.06,2.18.81-.13,1.64-.16,2.46-.09.37-.71.75-1.44,1.23-2.2.07-.11.2-.14.31-.09.93.49,1.81,1.08,2.62,1.76.22.19.43.38.64.56.1.09.23.21.27.38.02.07,0,.14-.03.19-.18.28-.37.55-.57.83-.26.38-.54.78-.82,1.21.24.61.49,1.23.72,1.86.68.07,1.56.2,2.5.59.09.04.14.12.15.21.07,1.22-.09,2.33-.49,3.39-.04.1-.13.16-.23.16h-.27c-.61-.04-1.24-.06-1.91,0-.26.62-.64,1.25-1.21,1.95.36.64.72,1.3,1.05,2.08.05.11,0,.24-.11.3-1.23.67-2.49,1.08-3.75,1.21,0,0-.02,0-.03,0Zm-1.02-2.62c.08,0,.16.04.2.11.44.68.72,1.35.98,2.01,1.07-.14,2.15-.49,3.2-1.03-.31-.72-.67-1.35-1.02-1.97-.05-.09-.04-.2.02-.27.63-.77,1.04-1.43,1.29-2.09.03-.09.11-.15.2-.15.76-.07,1.45-.04,2.12-.02h.09c.32-.91.45-1.85.41-2.88-.9-.35-1.73-.45-2.37-.51-.09,0-.17-.07-.21-.16-.25-.7-.53-1.41-.81-2.1-.03-.07-.02-.15.02-.22.31-.48.61-.91.9-1.33.16-.23.32-.46.48-.69-.03-.02-.05-.05-.08-.07-.2-.18-.41-.37-.63-.56-.72-.61-1.51-1.15-2.34-1.6-.45.73-.81,1.44-1.17,2.12-.05.09-.14.14-.24.13-.89-.09-1.8-.06-2.68.1-.11.02-.22-.04-.26-.15-.29-.72-.63-1.43-1-2.11-1.07.49-1.99,1.07-2.74,1.73.38.67.81,1.26,1.18,1.75.06.08.06.19.01.27-.51.81-.99,1.58-1.35,2.4-.05.11-.16.16-.28.14-.84-.21-1.65-.41-2.43-.61-.43,1.36-.52,2.61-.27,3.72.53-.08,1.03-.19,1.51-.29.24-.05.49-.1.73-.15.11-.02.23.04.27.14.41.99.85,1.78,1.36,2.42.06.08.07.19.02.28-.44.71-.84,1.29-1.24,1.85.64.76,1.45,1.36,2.39,1.77.1-.18.19-.36.28-.53.24-.47.48-.91.72-1.35.05-.08.14-.13.23-.12.79.08,1.63.14,2.44.02.01,0,.02,0,.04,0Z"/><path d="m151.51,29.77c-.32,0-.64-.07-.94-.2-.26-.11-.44-.25-.56-.43-.17-.24-.21-.53-.22-.75-.06-.79.13-1.51.53-2.02.49-.63,1.3-.9,1.97-.67.04.01.08.04.11.07,0,0,.01,0,.02,0,.71.24,1.24.96,1.28,1.74.04.76-.35,1.51-1,1.92-.35.22-.76.33-1.18.33Zm.29-3.67c-.4,0-.83.21-1.11.57-.33.42-.48,1.02-.43,1.69.01.16.04.37.14.51.07.1.19.19.36.27.55.24,1.19.2,1.67-.1.5-.31.81-.91.78-1.49-.03-.58-.43-1.14-.96-1.31-.02,0-.04-.01-.06-.02-.05-.02-.13-.04-.19-.1-.07-.01-.14-.02-.21-.02Zm.41-.17l.05.23s0,0,0,0l-.05-.23Z"/></g><g><path class="cls-1" d="m165.54,45.34c0-.83-.68-1.51-1.51-1.51s-1.51.68-1.51,1.51.68,1.51,1.51,1.51,1.51-.68,1.51-1.51Z"/><path d="m164.03,47.09c-.96,0-1.75-.78-1.75-1.75s.78-1.75,1.75-1.75,1.75.78,1.75,1.75-.78,1.75-1.75,1.75Zm0-3.02c-.7,0-1.27.57-1.27,1.27s.57,1.27,1.27,1.27,1.27-.57,1.27-1.27-.57-1.27-1.27-1.27Z"/></g><g><path class="cls-1" d="m85.71,7.91c0-.83-.68-1.51-1.51-1.51s-1.51.68-1.51,1.51.68,1.51,1.51,1.51,1.51-.68,1.51-1.51Z"/><path d="m84.2,9.66c-.96,0-1.75-.78-1.75-1.75s.78-1.75,1.75-1.75,1.75.78,1.75,1.75-.78,1.75-1.75,1.75Zm0-3.02c-.7,0-1.27.57-1.27,1.27s.57,1.27,1.27,1.27,1.27-.57,1.27-1.27-.57-1.27-1.27-1.27Z"/></g><path d="m61.96,8.15h0c-.13,0-.24-.11-.24-.24l.08-6.41c0-.13.11-.24.24-.24h0c.13,0,.24.11.24.24l-.08,6.41c0,.13-.11.24-.24.24Z"/><path d="m65.61,8.15h0c-.13,0-.24-.11-.24-.24l.08-5.05c0-.13.12-.23.24-.24.13,0,.24.11.24.24l-.08,5.05c0,.13-.11.24-.24.24Z"/><path d="m69.26,8.15h0c-.13,0-.24-.11-.24-.24l.08-7.67c0-.13.11-.24.24-.24h0c.13,0,.24.11.24.24l-.08,7.67c0,.13-.11.24-.24.24Z"/><path d="m58.19,8.15h0c-.13,0-.24-.11-.24-.24l.08-4.24c0-.13.11-.23.24-.24.13,0,.24.11.24.24l-.08,4.24c0,.13-.11.24-.24.24Z"/><g><path d="m127.3,6.03h0l-24.79-.2c-.13,0-.24-.11-.24-.24,0-.13.11-.24.24-.24l24.79.2c.13,0,.24.11.24.24,0,.13-.11.24-.24.24Z"/><g><path class="cls-1" d="m122.24,5.79c0,.88-.72,1.6-1.6,1.6s-1.6-.72-1.6-1.6.72-1.6,1.6-1.6,1.6.72,1.6,1.6Z"/><path d="m120.64,7.63c-1.01,0-1.84-.83-1.84-1.84s.83-1.84,1.84-1.84,1.84.83,1.84,1.84-.83,1.84-1.84,1.84Zm0-3.2c-.75,0-1.36.61-1.36,1.36s.61,1.36,1.36,1.36,1.36-.61,1.36-1.36-.61-1.36-1.36-1.36Z"/></g></g></svg>