<?xml version="1.0" encoding="utf-8"?>
<!-- Generator: Adobe Illustrator 27.1.1, SVG Export Plug-In . SVG Version: 6.00 Build 0)  -->
<svg version="1.1" id="Ebene_1" xmlns="http://www.w3.org/2000/svg" xmlns:xlink="http://www.w3.org/1999/xlink" x="0px" y="0px"
	 viewBox="0 0 1561.2 208.5" style="enable-background:new 0 0 1561.2 208.5;" xml:space="preserve">
<style type="text/css">
	.st0{fill:#4D5595;}
	.st1{opacity:0.8;}
	.st2{fill:#51AEB6;}
	.st3{fill:#51AEB6;enable-background:new    ;}
	.st4{opacity:0.8;fill:#51AEB6;enable-background:new    ;}
</style>
<circle class="st0" cx="104" cy="104" r="104"/>
<g class="st1">
	<polygon class="st2" points="105,109 105,208 204,208 	"/>
</g>
<path class="st3" d="M409.8,1H240.2C232.9,1,227,6.9,227,14.3v102.9c0,1.1,0.1,2.2,0.4,3.2c4.3,49.1,46.4,87.6,97.6,87.6
	s93.2-38.5,97.6-87.6c0.2-1,0.4-2.1,0.4-3.2V14.3C423,7,417.1,1,409.8,1L409.8,1z"/>
<path class="st0" d="M699.2,208h169.6c7.3,0,13.2-5.9,13.2-13.3V91.8c0-1.1-0.2-2.2-0.4-3.2C877.2,39.5,835.2,1,784,1
	s-93.2,38.5-97.6,87.6c-0.2,1-0.4,2.1-0.4,3.2v102.9C686,202,691.9,208,699.2,208z"/>
<path class="st0" d="M1392.8,73.7v125c0,5.4,4.8,9.7,10.8,9.7h83.8c0.9,0,1.8-0.1,2.6-0.3c39.9-3.2,71.3-34.2,71.3-71.9
	s-31.3-68.8-71.3-71.9c-0.8-0.2-1.7-0.3-2.6-0.3h-83.8C1397.6,64,1392.8,68.4,1392.8,73.7z"/>
<path class="st4" d="M1561.2,119V9.5c0-4.7-4.8-8.5-10.8-8.5h-83.8c-0.9,0-1.8,0.1-2.6,0.3c-39.9,2.8-71.3,29.9-71.3,63
	s31.3,60.2,71.3,63c0.8,0.2,1.7,0.3,2.6,0.3h83.8C1556.4,127.5,1561.2,123.7,1561.2,119L1561.2,119z"/>
<polygon class="st0" points="542.7,10 428.4,208 657,208 "/>
<rect x="961" y="19" class="st0" width="117" height="189"/>
<rect x="925" y="1" class="st4" width="189" height="63"/>
<rect x="1188" y="19" class="st0" width="117" height="189"/>
<rect x="1152" y="1" class="st4" width="189" height="63"/>
<rect x="1150" y="145" class="st4" width="189" height="63"/>
</svg>
