<?xml version="1.0" encoding="UTF-8"?><svg id="Ebene_2" xmlns="http://www.w3.org/2000/svg" viewBox="0 0 276.09 149.77"><defs><style>.cls-1{fill:#ce5959;}</style></defs><g id="Object"><g><g><path class="cls-1" d="m139.6,70.38c-1.19-1.6-1.79-3.86-1.79-6.78v-9.83c0-3.01.59-5.3,1.77-6.87,1.18-1.56,3.21-2.35,6.09-2.35,2.7,0,4.61.68,5.75,2.04,1.13,1.36,1.7,3.32,1.7,5.88v2.31h-4.83v-2.38c0-.97-.04-1.74-.14-2.29-.09-.56-.32-1.01-.7-1.36-.37-.35-.96-.53-1.75-.53s-1.43.19-1.84.56c-.41.37-.67.87-.8,1.5-.12.62-.19,1.43-.19,2.43v11.93c0,1.56.2,2.69.61,3.38.41.69,1.14,1.04,2.21,1.04.77,0,1.34-.18,1.72-.54.37-.36.61-.84.71-1.44.1-.6.15-1.4.15-2.4v-2.48h4.83v2.21c0,2.65-.56,4.71-1.67,6.17-1.11,1.46-3.04,2.19-5.78,2.19s-4.88-.8-6.07-2.4Z"/><path class="cls-1" d="m159.71,70.48c-1.22-1.53-1.84-3.77-1.84-6.72v-10.34c0-2.92.61-5.13,1.84-6.63,1.22-1.5,3.26-2.24,6.12-2.24s4.86.75,6.09,2.24c1.22,1.5,1.84,3.71,1.84,6.63v10.34c0,2.92-.62,5.16-1.85,6.7-1.24,1.54-3.26,2.31-6.07,2.31s-4.9-.77-6.12-2.29Zm8.36-2.47c.38-.7.58-1.72.58-3.06v-12.68c0-1.34-.19-2.35-.56-3.03-.37-.68-1.13-1.02-2.26-1.02s-1.89.35-2.28,1.04c-.39.69-.58,1.69-.58,3.01v12.68c0,1.34.19,2.36.58,3.06.39.7,1.14,1.05,2.28,1.05s1.86-.35,2.24-1.05Z"/><path class="cls-1" d="m179.57,44.86h5.2l3.91,19.07,4.05-19.07h5.07l.51,27.54h-3.74l-.41-19.14-3.91,19.14h-3.03l-3.98-19.21-.37,19.21h-3.77l.48-27.54Z"/><path class="cls-1" d="m204.08,44.86h8.09c4.69,0,7.04,2.61,7.04,7.82s-2.46,7.48-7.38,7.48h-2.75v12.24h-5v-27.54Zm6.94,11.76c1.36,0,2.28-.29,2.75-.87.48-.58.71-1.61.71-3.11,0-1.09-.08-1.92-.24-2.5-.16-.58-.48-1.01-.97-1.31-.49-.29-1.24-.44-2.26-.44h-1.94v8.23h1.94Z"/><path class="cls-1" d="m226.39,44.86h5.37l5.51,27.54h-4.66l-1.09-6.36h-4.79l-1.12,6.36h-4.73l5.51-27.54Zm4.59,17.99l-1.87-11.56-1.87,11.56h3.74Z"/><path class="cls-1" d="m241.72,44.86h3.5l6.7,15.71v-15.71h4.15v27.54h-3.33l-6.73-16.46v16.46h-4.28v-27.54Z"/><path class="cls-1" d="m265.79,61.9l-5.58-17.03h4.69l3.4,10.91,3.2-10.91h4.59l-5.51,17.03v10.51h-4.79v-10.51Z"/></g><g><path class="cls-1" d="m147.32,84.44v1.44h-4.08v11.19h-1.71v-11.19h-4.1v-1.44h9.89Z"/><path class="cls-1" d="m160.11,97.07h-1.32c-.15,0-.28-.04-.37-.11-.09-.08-.16-.17-.21-.29l-1.18-3.05h-5.67l-1.18,3.05c-.04.11-.11.2-.21.28-.1.08-.22.12-.37.12h-1.32l5.05-12.63h1.74l5.05,12.63Zm-8.28-4.69h4.71l-1.98-5.14c-.13-.32-.25-.71-.38-1.19-.06.24-.13.46-.19.66-.06.2-.12.38-.18.53l-1.98,5.13Z"/><path class="cls-1" d="m168.73,95.83c.34,0,.65-.02.94-.05.28-.03.55-.08.81-.15.25-.06.49-.14.71-.23.22-.09.45-.2.67-.31v-2.78h-1.96c-.11,0-.2-.03-.27-.1-.07-.06-.1-.14-.1-.24v-.97h3.88v4.85c-.32.23-.65.43-.99.6-.34.17-.71.31-1.1.43-.39.11-.81.2-1.26.26-.45.06-.93.08-1.45.08-.92,0-1.76-.16-2.52-.47-.76-.31-1.42-.75-1.97-1.32-.55-.57-.98-1.25-1.29-2.04-.31-.79-.46-1.67-.46-2.62s.15-1.84.45-2.63c.3-.79.73-1.47,1.29-2.04.56-.57,1.24-1.01,2.04-1.32.8-.31,1.69-.47,2.67-.47.5,0,.96.04,1.39.11.43.07.83.18,1.19.32.37.14.71.31,1.02.5s.6.42.87.67l-.48.78c-.1.16-.23.24-.39.24-.09,0-.2-.03-.31-.1-.15-.08-.31-.18-.49-.3-.18-.12-.4-.23-.67-.34-.26-.11-.57-.2-.92-.28s-.78-.11-1.26-.11c-.71,0-1.35.12-1.93.35-.58.23-1.07.56-1.47,1-.41.43-.72.95-.93,1.57-.22.61-.33,1.3-.33,2.07s.11,1.51.34,2.14c.23.63.54,1.16.96,1.59.41.43.9.77,1.46,1,.56.23,1.19.34,1.87.34Z"/><path class="cls-1" d="m184.67,95.63h5.46v1.44h-7.17v-12.63h1.71v11.19Z"/><path class="cls-1" d="m195.81,97.07h-1.71v-12.63h1.71v12.63Z"/><path class="cls-1" d="m202.17,84.5c.07.04.16.12.25.23l7.31,9.52c-.02-.15-.03-.3-.04-.45,0-.14,0-.28,0-.42v-8.94h1.5v12.63h-.86c-.14,0-.25-.02-.34-.07-.09-.05-.18-.13-.27-.24l-7.31-9.51c.01.15.02.29.03.43,0,.14,0,.27,0,.39v9h-1.5v-12.63h.88c.15,0,.27.02.34.06Z"/><path class="cls-1" d="m223.82,84.44v1.39h-6.06v4.19h4.91v1.34h-4.91v4.31h6.06v1.39h-7.78v-12.63h7.78Z"/></g><g><path class="cls-1" d="m44.63,6.44l75.93,21.58v75.54l-75.93-21.58V6.44m-4.87-6.44v85.67l85.67,24.34V24.34L39.76,0h0Z"/><polygon class="cls-1" points="85.67 149.77 0 125.42 0 39.76 85.67 64.1 85.67 149.77"/><path class="cls-1" d="m41.18,5.47l74.94,21.3-31.87,31.87L9.3,37.34,41.18,5.47m-1.42-5.47L0,39.76l85.67,24.34,39.76-39.76L39.76,0h0Z"/><polygon class="cls-1" points="90.49 144.95 125.42 110.01 90.49 100.08 90.49 144.95"/></g></g></g></svg>