<?xml version="1.0" encoding="UTF-8"?><svg id="Ebene_2" xmlns="http://www.w3.org/2000/svg" viewBox="0 0 148.12 177.54"><defs><style>.cls-1{fill:#ce5959;}</style></defs><g id="Object"><g><g><polygon class="cls-1" points="22.73 0 48.91 26.18 121.94 26.18 121.94 99.21 148.12 125.39 148.12 0 22.73 0"/><path class="cls-1" d="m.73,26.18v121.21h121.21v-48.18L48.91,26.18H.73Zm98.12,103.48H19.92V48.14h5.58v75.94h73.36v5.58Z"/></g><g><path class="cls-1" d="m10.49,174.55c.1,0,.2.04.28.12l.73.8c-.56.65-1.25,1.16-2.05,1.52-.8.36-1.77.55-2.9.55-.99,0-1.89-.17-2.69-.51-.81-.34-1.49-.82-2.06-1.44-.57-.62-1.01-1.36-1.32-2.22-.31-.86-.47-1.81-.47-2.85s.17-1.98.5-2.85c.34-.86.81-1.6,1.42-2.22.61-.62,1.33-1.1,2.18-1.44.85-.34,1.78-.51,2.8-.51s1.88.16,2.61.47c.73.31,1.38.74,1.95,1.28l-.6.85c-.04.06-.1.12-.15.16-.06.04-.14.06-.25.06-.08,0-.17-.03-.26-.09-.09-.06-.2-.14-.33-.23-.13-.09-.28-.19-.45-.29-.17-.1-.38-.2-.61-.29s-.51-.16-.82-.23c-.31-.06-.67-.09-1.08-.09-.74,0-1.41.13-2.02.38-.61.25-1.14.61-1.58,1.08-.44.47-.78,1.04-1.03,1.71-.25.67-.37,1.42-.37,2.25s.12,1.62.37,2.29c.25.67.58,1.24,1.01,1.7.42.46.93.82,1.51,1.06.58.24,1.21.36,1.88.36.41,0,.78-.02,1.1-.07.33-.05.63-.12.91-.23.28-.1.54-.23.78-.39.24-.16.48-.34.72-.56.11-.1.21-.14.32-.14Z"/><path class="cls-1" d="m31.5,170.52c0,1.03-.16,1.97-.49,2.83-.33.86-.79,1.6-1.38,2.22s-1.31,1.1-2.14,1.44-1.76.51-2.77.51-1.93-.17-2.76-.51c-.83-.34-1.54-.82-2.14-1.44s-1.05-1.36-1.38-2.22c-.33-.86-.49-1.8-.49-2.83s.16-1.97.49-2.83c.33-.86.79-1.6,1.38-2.22.59-.62,1.31-1.11,2.14-1.45.83-.35,1.75-.52,2.76-.52s1.93.17,2.77.52c.83.35,1.55.83,2.14,1.45.59.62,1.05,1.36,1.38,2.22.33.86.49,1.8.49,2.83Zm-1.91,0c0-.84-.12-1.6-.35-2.27-.23-.67-.56-1.24-.98-1.7-.42-.46-.93-.82-1.53-1.07-.6-.25-1.27-.37-2.01-.37s-1.4.12-2,.37c-.6.25-1.11.61-1.54,1.07-.42.46-.75,1.03-.98,1.7-.23.67-.34,1.43-.34,2.27s.11,1.6.34,2.27c.23.67.56,1.23.98,1.7.43.46.94.82,1.54,1.06s1.27.37,2,.37,1.41-.12,2.01-.37,1.11-.6,1.53-1.06c.42-.46.75-1.03.98-1.7.23-.67.35-1.42.35-2.27Z"/><path class="cls-1" d="m45.83,172.9c.07.17.13.34.2.51.06-.18.13-.35.2-.51s.15-.33.24-.49l4.65-8.45c.08-.15.17-.24.26-.27.09-.03.22-.05.38-.05h1.37v13.74h-1.63v-10.1c0-.13,0-.28,0-.43,0-.15.02-.31.03-.47l-4.71,8.59c-.16.29-.38.43-.67.43h-.27c-.29,0-.51-.14-.67-.43l-4.81-8.62c.02.17.03.33.04.49,0,.16.01.31.01.44v10.1h-1.63v-13.74h1.37c.17,0,.29.02.38.05.09.03.18.12.26.27l4.75,8.46c.09.15.17.31.23.48Z"/><path class="cls-1" d="m63.31,172.25v5.14h-1.85v-13.74h4.06c.87,0,1.62.1,2.27.3.64.2,1.17.49,1.6.86.42.37.74.82.94,1.34.21.52.31,1.11.31,1.75s-.11,1.22-.34,1.75c-.22.53-.55.99-.98,1.37-.43.38-.97.68-1.61.9-.64.21-1.37.32-2.2.32h-2.21Zm0-1.48h2.21c.53,0,1-.07,1.4-.21.41-.14.75-.34,1.02-.59.27-.25.48-.55.62-.91.14-.35.21-.74.21-1.16,0-.88-.27-1.56-.81-2.05-.54-.49-1.36-.74-2.45-.74h-2.21v5.66Z"/><path class="cls-1" d="m87.76,177.39h-1.44c-.17,0-.3-.04-.4-.12-.1-.08-.18-.19-.23-.32l-1.29-3.32h-6.17l-1.28,3.32c-.04.11-.12.22-.23.31-.11.09-.24.13-.4.13h-1.44l5.49-13.74h1.89l5.49,13.74Zm-9-5.1h5.13l-2.16-5.59c-.14-.34-.28-.78-.41-1.29-.07.26-.14.5-.21.72s-.13.41-.2.58l-2.16,5.58Z"/><path class="cls-1" d="m95.62,163.71c.08.04.17.13.27.25l7.96,10.36c-.02-.17-.03-.33-.04-.48,0-.16,0-.31,0-.46v-9.73h1.63v13.74h-.94c-.15,0-.27-.03-.37-.08-.1-.05-.2-.14-.29-.26l-7.95-10.35c.01.16.02.32.03.47,0,.15,0,.29,0,.42v9.79h-1.63v-13.74h.96c.17,0,.29.02.37.06Z"/><path class="cls-1" d="m118.87,171.92v5.47h-1.85v-5.47l-5.03-8.27h1.63c.17,0,.3.04.39.12.1.08.18.19.25.31l3.14,5.34c.13.22.24.43.32.63.09.2.16.39.24.58.07-.2.15-.4.23-.59.08-.2.19-.41.32-.62l3.14-5.34c.06-.1.14-.2.23-.29.1-.09.23-.14.39-.14h1.65l-5.04,8.27Z"/></g></g></g></svg>