<?xml version="1.0" encoding="UTF-8"?><svg id="Ebene_2" xmlns="http://www.w3.org/2000/svg" viewBox="0 0 173.15 177.07"><defs><style>.cls-1{fill:#f6b217;}</style></defs><g id="Object"><g><path class="cls-1" d="m126.67,0H42.22L0,73.13l42.22,73.13h84.45l42.22-73.13L126.67,0Zm-3.73,138.7l-.32.55H46.27L8.1,73.13,46.27,7.01h.64l8.65,14.99,9.22-15.97h1.22l-9.83,17.02,4.64,8.03,14.46-25.05h1.62l-15.27,26.45,4.33,7.51L85.56,6.03h2.43l-20.82,36.06,3.93,6.8L95.84,6.03h3.24l-26.37,45.67,3.57,6.19L106.23,6.03h4.05l-31.97,55.37,3.12,5.4L116.52,6.03h4.86l-37.52,64.98,3,5.2L124.45,11.11l3.24,5.61-37.59,65.11,32.84,56.87Z"/><g><path class="cls-1" d="m12,171.31c.43.57.65,1.27.65,2.12,0,1.16-.45,2.06-1.34,2.69-.89.63-2.2.95-3.91.95H.72v-13.42h6.29c1.58,0,2.81.31,3.66.93.86.62,1.29,1.47,1.29,2.56,0,.66-.15,1.25-.46,1.76-.31.51-.73.91-1.27,1.19.74.24,1.33.65,1.76,1.22Zm-8.78-5.71v3.7h3.53c.87,0,1.54-.16,2-.47.47-.31.7-.77.7-1.37s-.23-1.08-.7-1.39c-.47-.31-1.13-.47-2-.47h-3.53Zm6.92,7.57c0-1.29-.96-1.94-2.9-1.94H3.21v3.87h4.03c1.93,0,2.9-.65,2.9-1.94Z"/><path class="cls-1" d="m27.93,177.07l-2.74-3.93c-.12.01-.29.02-.52.02h-3.03v3.91h-2.49v-13.42h5.52c1.16,0,2.18.19,3.04.58.86.38,1.53.93,1.99,1.65.46.72.69,1.57.69,2.55s-.25,1.88-.74,2.61c-.49.73-1.2,1.27-2.12,1.63l3.09,4.41h-2.68Zm-.9-10.62c-.56-.46-1.39-.69-2.47-.69h-2.91v5.35h2.91c1.09,0,1.91-.23,2.47-.7s.84-1.13.84-1.98-.28-1.52-.84-1.98Z"/><path class="cls-1" d="m45.71,173.97h-6.71l-1.32,3.11h-2.57l6.04-13.42h2.46l6.06,13.42h-2.61l-1.34-3.11Zm-.83-1.96l-2.53-5.87-2.51,5.87h5.04Z"/><path class="cls-1" d="m67.13,163.65v13.42h-2.05l-7.4-9.09v9.09h-2.47v-13.42h2.05l7.4,9.09v-9.09h2.47Z"/><path class="cls-1" d="m74.57,163.65h5.87c1.43,0,2.7.28,3.82.83,1.11.56,1.98,1.34,2.59,2.36s.92,2.19.92,3.52-.31,2.5-.92,3.52c-.61,1.02-1.48,1.8-2.59,2.36-1.11.56-2.38.83-3.82.83h-5.87v-13.42Zm5.75,11.31c.98,0,1.85-.19,2.6-.57.75-.38,1.32-.91,1.73-1.61.4-.7.6-1.51.6-2.43s-.2-1.73-.6-2.43c-.4-.7-.98-1.23-1.73-1.61-.75-.38-1.61-.57-2.6-.57h-3.26v9.2h3.26Z"/><path class="cls-1" d="m115.3,163.65v13.42h-2.05l-7.4-9.09v9.09h-2.47v-13.42h2.05l7.4,9.09v-9.09h2.47Z"/><path class="cls-1" d="m131.44,173.97h-6.71l-1.32,3.11h-2.57l6.04-13.42h2.46l6.06,13.42h-2.61l-1.34-3.11Zm-.83-1.96l-2.53-5.87-2.51,5.87h5.04Z"/><path class="cls-1" d="m153.27,177.07l-.02-8.9-4.41,7.36h-1.11l-4.41-7.25v8.78h-2.38v-13.42h2.05l5.33,8.9,5.24-8.9h2.05l.02,13.42h-2.36Z"/><path class="cls-1" d="m173.15,174.98v2.09h-10.07v-13.42h9.8v2.09h-7.31v3.49h6.48v2.05h-6.48v3.7h7.57Z"/></g></g></g></svg>