<?xml version="1.0" encoding="UTF-8"?><svg id="Ebene_2" xmlns="http://www.w3.org/2000/svg" viewBox="0 0 189.76 188.67"><defs><style>.cls-1{fill:#ce5959;}</style></defs><g id="Object"><g><g><path class="cls-1" d="m0,188.67v-16.36h6.02c1.13,0,2.09.1,2.89.31.79.21,1.44.5,1.94.89.5.38.87.85,1.09,1.39.23.55.34,1.16.34,1.83,0,.37-.05.72-.16,1.06-.11.34-.27.66-.49.96-.22.3-.51.57-.87.81-.35.24-.77.45-1.27.63,1.08.26,1.88.69,2.39,1.27s.77,1.34.77,2.26c0,.7-.13,1.34-.4,1.94-.27.6-.66,1.12-1.18,1.57-.52.45-1.16.79-1.93,1.04-.76.25-1.64.38-2.62.38H0Zm3.79-9.48h1.98c.42,0,.8-.03,1.13-.09.34-.06.62-.17.86-.31.24-.15.42-.36.54-.62.12-.26.18-.59.18-.99s-.05-.71-.15-.97c-.1-.26-.25-.47-.45-.62-.2-.16-.46-.27-.77-.34-.31-.07-.68-.1-1.11-.1h-2.22v4.04Zm0,2.54v4.08h2.67c.5,0,.91-.06,1.23-.19.32-.13.57-.29.75-.49.18-.2.3-.43.37-.69.07-.25.1-.51.1-.77,0-.3-.04-.57-.12-.81-.08-.24-.21-.44-.4-.61-.19-.16-.44-.29-.76-.38-.31-.09-.71-.13-1.19-.13h-2.65Z"/><path class="cls-1" d="m23.02,182.62v6.05h-3.8v-16.36h5.32c1.18,0,2.19.12,3.03.36.83.24,1.52.58,2.04,1.02.53.43.91.95,1.15,1.54.24.59.36,1.24.36,1.93,0,.53-.07,1.03-.21,1.5-.14.47-.35.91-.63,1.31-.28.4-.63.76-1.03,1.07-.41.31-.88.57-1.41.77.25.13.49.29.71.47.22.19.41.42.58.69l3.48,5.69h-3.44c-.64,0-1.09-.24-1.37-.72l-2.72-4.75c-.12-.21-.26-.36-.42-.45-.16-.09-.39-.13-.68-.13h-.97Zm0-2.62h1.53c.52,0,.96-.07,1.32-.2.36-.13.66-.31.89-.54.23-.23.4-.5.5-.81.11-.31.16-.65.16-1,0-.72-.23-1.28-.7-1.68-.47-.4-1.19-.61-2.17-.61h-1.53v4.85Z"/><path class="cls-1" d="m53.87,188.67h-2.94c-.33,0-.6-.08-.81-.23-.21-.15-.36-.35-.44-.59l-.97-2.85h-6.22l-.97,2.85c-.07.21-.22.4-.44.57-.22.17-.48.25-.8.25h-2.96l6.33-16.36h3.88l6.33,16.36Zm-10.51-6.25h4.47l-1.5-4.48c-.1-.28-.21-.62-.34-1-.13-.39-.26-.8-.39-1.25-.12.46-.24.88-.37,1.27-.13.39-.25.73-.36,1.01l-1.5,4.46Z"/><path class="cls-1" d="m62.1,172.33c.11.01.21.04.3.08.09.04.18.1.26.17.08.08.18.18.28.3l7.77,9.82c-.03-.31-.05-.62-.07-.92-.02-.3-.02-.57-.02-.84v-8.66h3.35v16.36h-1.98c-.29,0-.54-.04-.74-.13-.2-.09-.4-.25-.58-.49l-7.71-9.75c.02.28.04.56.06.84.02.27.02.53.02.77v8.77h-3.35v-16.36h2c.16,0,.3,0,.41.02Z"/><path class="cls-1" d="m96,180.48c0,1.18-.2,2.27-.61,3.27-.41,1-.98,1.86-1.72,2.59-.74.73-1.63,1.3-2.68,1.71-1.05.41-2.2.61-3.48.61h-6.36v-16.36h6.36c1.27,0,2.43.21,3.48.62,1.04.41,1.94.98,2.68,1.71.74.73,1.32,1.59,1.72,2.59.41,1,.61,2.09.61,3.26Zm-3.89,0c0-.81-.1-1.54-.31-2.19-.21-.65-.51-1.2-.9-1.66-.39-.45-.87-.8-1.44-1.04-.57-.24-1.22-.37-1.94-.37h-2.54v10.52h2.54c.73,0,1.37-.12,1.94-.37.57-.24,1.05-.59,1.44-1.04.39-.45.69-1,.9-1.66.21-.65.31-1.38.31-2.2Z"/><path class="cls-1" d="m113.55,172.33c.11.01.21.04.3.08s.18.1.26.17c.08.08.18.18.28.3l7.77,9.82c-.03-.31-.05-.62-.07-.92-.02-.3-.02-.57-.02-.84v-8.66h3.35v16.36h-1.98c-.29,0-.54-.04-.74-.13-.2-.09-.4-.25-.58-.49l-7.71-9.75c.02.28.04.56.06.84.02.27.02.53.02.77v8.77h-3.35v-16.36h2c.16,0,.3,0,.42.02Z"/><path class="cls-1" d="m147.83,188.67h-2.94c-.33,0-.6-.08-.81-.23-.21-.15-.36-.35-.44-.59l-.97-2.85h-6.22l-.97,2.85c-.07.21-.22.4-.44.57-.22.17-.48.25-.8.25h-2.96l6.33-16.36h3.88l6.33,16.36Zm-10.51-6.25h4.47l-1.5-4.48c-.1-.28-.21-.62-.34-1-.13-.39-.26-.8-.39-1.25-.12.46-.24.88-.37,1.27-.13.39-.25.73-.36,1.01l-1.5,4.46Z"/><path class="cls-1" d="m162.44,182.08c.14.31.27.62.4.94.13-.33.26-.65.4-.96.14-.31.29-.61.44-.9l4.2-8.27c.07-.14.15-.25.23-.33.08-.08.17-.14.26-.17.1-.04.21-.06.33-.06h3.33v16.35h-3.35v-9.41c0-.46.02-.95.07-1.48l-4.33,8.41c-.13.26-.32.46-.54.59-.23.13-.49.2-.78.2h-.52c-.29,0-.55-.07-.78-.2-.23-.13-.41-.33-.54-.59l-4.36-8.42c.03.26.05.52.07.78.01.26.02.5.02.71v9.41h-3.35v-16.35h3.33c.12,0,.23.02.33.06.1.04.18.1.26.17.08.08.16.19.23.33l4.21,8.31c.15.28.29.58.43.89Z"/><path class="cls-1" d="m189.76,172.31v2.92h-6.71v3.82h5.14v2.81h-5.14v3.9h6.71v2.92h-10.53v-16.36h10.53Z"/></g><path class="cls-1" d="m156.94,46.48l-62.41,108.1L32.11,46.48h124.82m3.1-6.12H29.01c-3.34,0-5.42,3.61-3.75,6.5l65.51,113.47c.83,1.44,2.29,2.17,3.75,2.17s2.92-.72,3.75-2.17l65.51-113.47c1.67-2.89-.42-6.5-3.75-6.5h0Z"/><path class="cls-1" d="m94.52,0L21.5,126.47h146.04L94.52,0Zm-17.77,48.81l4.13,7.15-19.99,34.63-4.13-7.15,19.99-34.63Zm-12.91,46.88l19.99-34.63,32.91,56.99h-39.98l-12.91-22.37Z"/></g></g></svg>