<?xml version="1.0" encoding="UTF-8"?><svg id="Ebene_2" xmlns="http://www.w3.org/2000/svg" viewBox="0 0 174.25 188.41"><defs><style>.cls-1{fill:#403449;}</style></defs><g id="Object"><g><g><polygon class="cls-1" points="82.71 75.44 83.81 73.53 106.7 33.9 87.13 0 43.56 75.44 87.13 150.89 106.7 116.99 83.81 77.36 82.71 75.44"/><polygon class="cls-1" points="59.82 111.25 43.56 139.41 6.63 75.44 43.56 11.48 59.82 39.63 63.14 33.9 43.56 0 0 75.44 43.56 150.89 63.14 116.99 59.82 111.25"/><g><polygon class="cls-1" points="129.7 66.23 129.73 66.25 129.73 54.08 102.26 101.65 105.75 107.7 129.7 66.23"/><polygon class="cls-1" points="129.7 49.59 129.73 49.61 129.73 37.44 97.46 93.34 100.95 99.38 129.7 49.59"/><polygon class="cls-1" points="91.34 82.74 129.7 16.32 129.73 16.34 129.73 1.66 87.13 75.44 91.34 82.74"/><polygon class="cls-1" points="129.7 32.95 129.73 32.97 129.73 20.81 92.65 85.02 96.14 91.06 129.7 32.95"/><polygon class="cls-1" points="131.64 1.66 131.64 149.23 174.25 75.44 131.64 1.66"/><polygon class="cls-1" points="129.7 82.86 129.73 82.88 129.73 70.72 107.06 109.97 110.55 116.01 129.7 82.86"/><polygon class="cls-1" points="129.7 99.5 129.73 99.52 129.73 87.35 111.87 118.29 115.36 124.33 129.7 99.5"/><polygon class="cls-1" points="129.73 133.39 125.16 141.31 129.73 149.23 129.73 133.39"/><polygon class="cls-1" points="123.85 139.03 129.7 128.9 129.73 128.92 129.73 120.62 121.47 134.93 123.85 139.03 123.85 139.03"/><polygon class="cls-1" points="129.7 116.13 129.73 116.15 129.73 103.99 116.67 126.61 120.16 132.65 129.7 116.13"/></g></g><g><path class="cls-1" d="m45.74,179.77c.77.91,1.16,1.99,1.16,3.22,0,1.64-.56,2.95-1.67,3.94-1.11.99-2.72,1.48-4.84,1.48h-7.47v-20.11h7.36c2.02,0,3.55.45,4.59,1.34,1.05.89,1.57,2.12,1.57,3.68,0,1.29-.35,2.34-1.04,3.14-.7.8-1.58,1.31-2.67,1.54,1.24.27,2.24.86,3.01,1.77Zm-10.23-2.65h4.34c1.27,0,2.25-.3,2.92-.88.67-.59,1.01-1.42,1.01-2.48s-.33-1.84-1-2.43c-.67-.59-1.68-.88-3.05-.88h-4.22v6.68Zm7.58,8.19c.75-.63,1.13-1.51,1.13-2.65s-.38-2-1.16-2.64-1.84-.96-3.21-.96h-4.34v7.19h4.39c1.37,0,2.43-.31,3.18-.94Z"/><path class="cls-1" d="m66.53,188.41l-5.25-8.22h-2.82v8.22h-2.6v-20.11h6.62c2.28,0,3.99.55,5.14,1.64,1.14,1.09,1.71,2.54,1.71,4.35,0,1.64-.46,2.95-1.37,3.95-.91,1-2.24,1.62-3.97,1.87l5.48,8.3h-2.94Zm-8.07-10.1h3.79c2.95,0,4.42-1.29,4.42-3.88s-1.47-3.88-4.42-3.88h-3.79v7.76Z"/><path class="cls-1" d="m89.98,183.76h-8.84l-1.68,4.65h-2.8l7.45-19.74h2.94l7.42,19.74h-2.8l-1.68-4.65Zm-.74-2.03l-3.68-10.16-3.68,10.16h7.36Z"/><path class="cls-1" d="m118.42,188.41h-2.6l-10.44-15.89v15.89h-2.6v-20.11h2.6l10.44,15.92v-15.92h2.6v20.11Z"/><path class="cls-1" d="m144.02,183.66c-.82,1.51-2.02,2.68-3.61,3.51-1.59.83-3.5,1.24-5.72,1.24h-6.39v-20.11h6.39c2.23,0,4.13.4,5.72,1.21,1.59.81,2.79,1.97,3.61,3.48s1.23,3.3,1.23,5.35-.41,3.81-1.23,5.32Zm-3.51.39c1.39-1.35,2.08-3.25,2.08-5.71s-.69-4.36-2.07-5.72-3.39-2.04-6.03-2.04h-3.59v15.49h3.59c2.62,0,4.63-.68,6.02-2.03Z"/></g></g></g></svg>