<?xml version="1.0" encoding="UTF-8"?><svg id="Ebene_2" xmlns="http://www.w3.org/2000/svg" viewBox="0 0 159.4 173.84"><defs><style>.cls-1{fill:#f6b217;}</style></defs><g id="Object"><g><g><path class="cls-1" d="m24.67,170.55c.11,0,.21.05.31.14l.8.88c-.62.72-1.37,1.28-2.25,1.68-.88.4-1.95.6-3.19.6-1.09,0-2.08-.19-2.96-.56-.89-.38-1.64-.9-2.27-1.58-.62-.68-1.11-1.49-1.46-2.44-.34-.95-.52-1.99-.52-3.13s.18-2.18.55-3.13c.37-.95.89-1.76,1.56-2.45.67-.68,1.47-1.21,2.4-1.59.93-.38,1.96-.56,3.08-.56s2.07.17,2.87.52c.8.34,1.52.81,2.15,1.4l-.66.94c-.05.07-.11.13-.17.17-.06.05-.15.07-.27.07-.09,0-.19-.03-.29-.1-.1-.07-.22-.15-.36-.25-.14-.1-.31-.2-.5-.32-.19-.11-.42-.22-.67-.32-.26-.1-.56-.18-.91-.25-.34-.07-.74-.1-1.19-.1-.81,0-1.55.14-2.22.42-.67.28-1.25.67-1.73,1.19-.49.51-.86,1.14-1.13,1.88-.27.74-.41,1.56-.41,2.48s.14,1.78.41,2.52c.27.74.64,1.36,1.11,1.87.47.51,1.02.9,1.66,1.17.64.27,1.33.4,2.07.4.45,0,.85-.03,1.21-.08.36-.05.69-.14,1-.25s.59-.25.85-.43c.26-.17.53-.38.8-.62.12-.11.24-.16.35-.16Z"/><path class="cls-1" d="m47.77,166.13c0,1.13-.18,2.17-.54,3.12-.36.95-.86,1.76-1.52,2.44-.65.68-1.44,1.21-2.36,1.59-.92.38-1.93.56-3.04.56s-2.12-.19-3.04-.56-1.7-.91-2.35-1.59c-.65-.68-1.16-1.5-1.52-2.44-.36-.95-.54-1.98-.54-3.12s.18-2.17.54-3.12c.36-.95.86-1.76,1.52-2.45.65-.69,1.44-1.22,2.35-1.6.91-.38,1.93-.57,3.04-.57s2.12.19,3.04.57c.92.38,1.7.91,2.36,1.6.65.69,1.16,1.5,1.52,2.45.36.95.54,1.98.54,3.12Zm-2.1,0c0-.93-.13-1.76-.38-2.5-.25-.74-.61-1.36-1.08-1.87s-1.03-.9-1.69-1.18c-.66-.27-1.4-.41-2.21-.41s-1.54.14-2.2.41c-.66.27-1.22.67-1.69,1.18s-.83,1.13-1.08,1.87c-.25.74-.38,1.57-.38,2.5s.13,1.76.38,2.49c.25.73.61,1.36,1.08,1.87.47.51,1.03.9,1.69,1.17.66.27,1.4.41,2.2.41s1.55-.14,2.21-.41c.66-.27,1.22-.66,1.69-1.17.46-.51.82-1.13,1.08-1.87.25-.73.38-1.57.38-2.49Z"/><path class="cls-1" d="m63.53,168.75c.07.19.15.37.22.56.07-.2.14-.38.22-.56.08-.18.17-.36.26-.54l5.11-9.29c.09-.16.19-.26.29-.29.1-.04.24-.05.42-.05h1.51v15.11h-1.79v-11.1c0-.15,0-.31.01-.47,0-.17.02-.34.03-.52l-5.18,9.45c-.18.32-.42.47-.74.47h-.3c-.32,0-.56-.16-.74-.47l-5.29-9.48c.02.18.04.36.05.54.01.18.02.34.02.48v11.1h-1.79v-15.11h1.51c.18,0,.32.02.42.05.1.04.19.13.28.29l5.22,9.3c.1.17.18.35.26.53Z"/><path class="cls-1" d="m82.76,168.02v5.65h-2.04v-15.11h4.46c.96,0,1.79.11,2.49.33.71.22,1.29.54,1.76.94.46.41.81.9,1.04,1.48.23.58.34,1.22.34,1.93s-.12,1.35-.37,1.93c-.25.58-.61,1.09-1.08,1.51-.47.42-1.06.75-1.77.99-.7.24-1.51.35-2.41.35h-2.42Zm0-1.62h2.42c.58,0,1.1-.08,1.54-.23.45-.15.82-.37,1.12-.65.3-.28.53-.61.69-1s.23-.81.23-1.28c0-.96-.3-1.71-.89-2.26-.59-.54-1.49-.81-2.69-.81h-2.42v6.22Z"/><path class="cls-1" d="m109.64,173.68h-1.58c-.18,0-.33-.05-.44-.14-.11-.09-.2-.21-.25-.35l-1.41-3.65h-6.78l-1.41,3.65c-.05.13-.13.24-.25.34-.12.1-.27.15-.44.15h-1.58l6.04-15.11h2.08l6.04,15.11Zm-9.9-5.61h5.64l-2.37-6.15c-.16-.38-.31-.85-.45-1.42-.08.29-.15.55-.23.8-.07.24-.15.46-.22.64l-2.37,6.14Z"/><path class="cls-1" d="m118.28,158.64c.09.05.19.14.3.28l8.75,11.39c-.02-.18-.04-.36-.04-.53,0-.17-.01-.34-.01-.5v-10.7h1.79v15.11h-1.03c-.16,0-.3-.03-.41-.08-.11-.06-.22-.15-.32-.28l-8.74-11.38c.01.18.02.35.03.52,0,.17,0,.32,0,.46v10.77h-1.79v-15.11h1.05c.18,0,.32.02.41.07Z"/><path class="cls-1" d="m143.86,167.67v6.01h-2.04v-6.01l-5.54-9.1h1.79c.18,0,.33.05.43.14.11.09.2.2.27.34l3.46,5.87c.14.25.26.48.35.7.1.22.18.43.26.64.08-.22.16-.44.25-.65.09-.22.21-.45.35-.69l3.45-5.87c.06-.11.15-.22.26-.32.11-.1.25-.15.43-.15h1.81l-5.55,9.1Z"/></g><g><g><path class="cls-1" d="m62.54,133.21c.88.11,1.76.2,2.64.28,13.63-6.05,25.14-16.03,33.18-28.98,7.79-12.56,11.63-26.79,11.29-41.23l-14.87-14.87c6.04,31.39-5.81,64.62-32.24,84.8Z"/><path class="cls-1" d="m57.23,132.52c.14.03.27.05.41.08,28.34-20.2,40.5-55.45,32.48-87.88l-21.18-21.18c17.01,34.59,13.57,77.26-11.71,108.98Z"/><path class="cls-1" d="m129.06,80.74c-3.58,16.16-12.19,30.7-24.92,41.76-3.72,3.23-7.68,6.07-11.84,8.51,20.79-6.05,37.61-21.65,45.35-41.67l-8.6-8.6Z"/><path class="cls-1" d="m125.69,78.35l-12.23-12.23c-.19,13.98-4.17,27.69-11.73,39.88-7.39,11.9-17.61,21.38-29.68,27.75.02,0,.04,0,.06,0h0c2.78,0,5.52-.17,8.21-.49,22.88-9.35,40.38-29.72,45.37-54.91Z"/><path class="cls-1" d="m59.03,14.61L44.41,0C18.5,10.02,0,35.23,0,64.57h0c0,32.34,22.49,59.68,52.61,67.16,28.06-34.05,29.57-81.72,6.42-117.11Z"/></g><path class="cls-1" d="m159.4,76.1c0-38.05-31.13-69.18-69.18-69.18h0c-8.72,0-17.07,1.64-24.77,4.61l89.33,89.33c2.98-7.7,4.61-16.05,4.61-24.77h0Z"/></g></g></g></svg>