<?xml version="1.0" encoding="UTF-8"?><svg id="Ebene_2" xmlns="http://www.w3.org/2000/svg" viewBox="0 0 189.32 150.21"><defs><style>.cls-1{fill:#403449;}</style></defs><g id="Object"><g><g><path class="cls-1" d="m14.4,125.53c.74.92,1.12,2,1.12,3.23,0,1.72-.58,3.08-1.73,4.07-1.15,1-2.82,1.49-5,1.49H0v-20.47h8.61c2.07,0,3.66.45,4.77,1.36,1.11.91,1.67,2.18,1.67,3.83,0,1.28-.33,2.32-1,3.13s-1.54,1.34-2.62,1.59c1.24.25,2.23.84,2.97,1.75Zm-10.31-3.09h3.68c1.02,0,1.8-.23,2.33-.68.53-.45.8-1.11.8-1.96s-.26-1.51-.78-1.97c-.52-.46-1.32-.7-2.41-.7h-3.62v5.31Zm6.38,7.84c.58-.47.87-1.16.87-2.07s-.29-1.61-.88-2.1c-.59-.49-1.43-.74-2.51-.74h-3.86v5.63h3.89c1.08,0,1.91-.24,2.49-.71Z"/><path class="cls-1" d="m31.96,134.33l-4.79-7.98h-1.8v7.98h-4.09v-20.47h7.8c2.38,0,4.19.58,5.44,1.74,1.25,1.16,1.87,2.69,1.87,4.58,0,1.55-.43,2.84-1.29,3.89-.86,1.04-2.1,1.74-3.73,2.09l5.1,8.18h-4.52Zm-6.58-10.79h3.36c2.34,0,3.51-1.03,3.51-3.1,0-.99-.29-1.75-.86-2.31-.57-.55-1.46-.83-2.65-.83h-3.36v6.23Z"/><path class="cls-1" d="m54.52,130.21h-8.21l-1.45,4.12h-4.32l7.54-20.24h4.67l7.51,20.24h-4.32l-1.42-4.12Zm-1.1-3.1l-3.02-8.64-3.02,8.64h6.03Z"/><path class="cls-1" d="m82.71,134.33h-4.09l-9.16-13.92v13.92h-4.09v-20.47h4.09l9.16,14.04v-14.04h4.09v20.47Z"/><path class="cls-1" d="m106.05,129.43c-.85,1.55-2.08,2.75-3.7,3.61-1.61.86-3.53,1.29-5.76,1.29h-7.28v-20.47h7.28c2.22,0,4.14.42,5.76,1.26,1.61.84,2.85,2.03,3.7,3.57.85,1.54,1.28,3.33,1.28,5.38s-.43,3.82-1.28,5.37Zm-4.68-.49c1.21-1.16,1.81-2.78,1.81-4.87s-.6-3.74-1.81-4.9c-1.21-1.16-2.91-1.74-5.12-1.74h-2.84v13.25h2.84c2.2,0,3.91-.58,5.12-1.74Z"/></g><path class="cls-1" d="m57.08,0s52.79,19.93,51.67,48.77h.02v48.77s-52.79-19.93-51.67-48.77h-.02V0Z"/><g><path class="cls-1" d="m155.78,86.13c9.79-6.73,21.26-11.1,33.53-12.36v-15.27c-7.1,2.73-13.77,6.65-19.74,11.71-5.47,4.64-10.09,10.01-13.79,15.92Z"/><path class="cls-1" d="m149.79,90.73c4.27-8.63,10.28-16.39,17.85-22.8,6.53-5.54,13.87-9.77,21.68-12.63V11.3s-75.18,28.38-73.59,69.45h-.03v69.45s3.35-1.27,8.62-3.65c-.02-2.23.05-4.47.24-6.72,1.63-19.82,11.16-37.14,25.22-49.12Z"/><path class="cls-1" d="m142.64,116.53c.4-4.87,1.29-9.63,2.63-14.22-8.77,10.35-14.52,23.42-15.72,37.95-.11,1.32-.17,2.64-.2,3.96,4.27-2.06,9.24-4.61,14.46-7.62-1.31-6.52-1.73-13.26-1.17-20.07Z"/><path class="cls-1" d="m145.63,116.78c-.51,6.17-.17,12.28.93,18.21,20.54-12.29,43.63-31.27,42.74-54.23h.02v-1.96c-14.95,1.65-28.59,8.26-39.08,18.25-2.47,6.23-4.04,12.86-4.6,19.72Z"/></g></g></g></svg>