<?xml version="1.0" encoding="UTF-8"?><svg id="Ebene_2" xmlns="http://www.w3.org/2000/svg" viewBox="0 0 223.97 159.7"><defs><style>.cls-1{fill:#0064aa;}</style></defs><g id="Object"><g><rect class="cls-1" x="30.75" y="48.76" width="30.35" height="30.35" rx="15.17" ry="15.17"/><path class="cls-1" d="m157.9,43.91c0-24.15-19.76-43.91-43.91-43.91h0c-24.15,0-43.91,19.76-43.91,43.91h0v64.17s87.81-9.78,87.82-64.16c0,0,0,0,0,0h0Z"/><path class="cls-1" d="m0,129.14s0,0,0,0h0c0,16.8,13.75,30.55,30.55,30.55h0c16.8,0,30.55-13.75,30.55-30.55h0v-44.64S0,91.31,0,129.14Zm30.55,8.03c-4.42,0-8.03-3.61-8.03-8.03s3.61-8.03,8.03-8.03,8.03,3.61,8.03,8.03-3.61,8.03-8.03,8.03Z"/><g><path class="cls-1" d="m75.81,140.64c-1.63-.88-2.9-2.11-3.82-3.67-.92-1.56-1.38-3.32-1.38-5.28s.47-3.72,1.4-5.28c.93-1.56,2.21-2.78,3.84-3.67,1.63-.88,3.45-1.33,5.46-1.33,1.63,0,3.13.29,4.48.86,1.35.57,2.49,1.4,3.42,2.48l-2.4,2.25c-1.45-1.56-3.22-2.34-5.34-2.34-1.37,0-2.6.3-3.68.9-1.08.6-1.93,1.43-2.54,2.5-.61,1.07-.91,2.27-.91,3.62s.3,2.56.91,3.62c.61,1.07,1.46,1.9,2.54,2.5,1.08.6,2.31.9,3.68.9,2.11,0,3.89-.79,5.34-2.37l2.4,2.28c-.93,1.08-2.08,1.91-3.44,2.48-1.36.57-2.86.86-4.49.86-2.02,0-3.84-.44-5.46-1.33Z"/><path class="cls-1" d="m96.17,140.64c-1.64-.88-2.92-2.11-3.85-3.68-.93-1.57-1.4-3.32-1.4-5.26s.46-3.7,1.4-5.26c.93-1.57,2.21-2.8,3.85-3.68,1.64-.88,3.47-1.33,5.51-1.33s3.87.44,5.51,1.33c1.64.88,2.92,2.11,3.85,3.67.93,1.56,1.4,3.32,1.4,5.28s-.47,3.72-1.4,5.28c-.93,1.56-2.22,2.78-3.85,3.67-1.64.88-3.47,1.33-5.51,1.33s-3.87-.44-5.51-1.33Zm9.1-2.82c1.07-.6,1.9-1.44,2.51-2.51.61-1.07.91-2.28.91-3.61s-.3-2.53-.91-3.61c-.61-1.07-1.45-1.91-2.51-2.51-1.07-.6-2.26-.9-3.6-.9s-2.53.3-3.59.9c-1.07.6-1.9,1.44-2.51,2.51-.61,1.08-.91,2.28-.91,3.61s.3,2.54.91,3.61c.61,1.08,1.45,1.91,2.51,2.51,1.06.6,2.26.9,3.59.9s2.53-.3,3.6-.9Z"/><path class="cls-1" d="m134.72,141.69l-.03-13.24-6.56,10.96h-1.66l-6.56-10.79v13.07h-3.54v-19.97h3.05l7.93,13.24,7.79-13.24h3.05l.03,19.97h-3.51Z"/><path class="cls-1" d="m156.36,122.57c1.28.57,2.27,1.39,2.95,2.45.68,1.07,1.03,2.33,1.03,3.8s-.34,2.71-1.03,3.78c-.68,1.08-1.67,1.9-2.95,2.47-1.28.57-2.79.86-4.52.86h-4.51v5.76h-3.71v-19.97h8.22c1.73,0,3.24.29,4.52.86Zm-1.01,9.19c.84-.69,1.25-1.66,1.25-2.94s-.42-2.25-1.25-2.94c-.84-.68-2.06-1.03-3.68-1.03h-4.34v7.93h4.34c1.62,0,2.84-.34,3.68-1.03Z"/><path class="cls-1" d="m176,137.06h-9.99l-1.97,4.62h-3.82l8.99-19.97h3.65l9.02,19.97h-3.88l-2-4.62Zm-1.23-2.91l-3.77-8.73-3.74,8.73h7.5Z"/><path class="cls-1" d="m202.17,121.71v19.97h-3.05l-11.01-13.53v13.53h-3.68v-19.97h3.05l11.01,13.53v-13.53h3.68Z"/><path class="cls-1" d="m216.15,134.64v7.05h-3.71v-6.99l-7.85-12.98h3.97l5.85,9.73,5.91-9.73h3.65l-7.82,12.93Z"/></g></g></g></svg>