<?xml version="1.0" encoding="UTF-8"?><svg id="Ebene_2" xmlns="http://www.w3.org/2000/svg" viewBox="0 0 194.57 143.73"><defs><style>.cls-1{fill:#403449;}</style></defs><g id="Object"><g><g><path class="cls-1" d="m55.23,117.79h7.12c3.19,0,5.56.49,7.1,1.46,1.54.97,2.31,2.52,2.31,4.65,0,.31-.02.62-.06.93-.04.31-.14.7-.3,1.18s-.38.92-.66,1.32c-.28.4-.69.79-1.23,1.19-.54.4-1.18.71-1.91.95,1.67.31,2.93,1.02,3.8,2.12.86,1.1,1.29,2.42,1.29,3.96,0,2.25-.74,3.99-2.21,5.22-1.47,1.23-3.66,1.85-6.58,1.85h-8.67v-24.84Zm2.91,10.68h5.32c1.74,0,3.05-.3,3.93-.91.88-.6,1.33-1.68,1.33-3.22s-.53-2.63-1.59-3.22c-1.06-.59-2.7-.88-4.93-.88h-4.06v8.23Zm0,2.33v9.44h5.19c2.1,0,3.68-.39,4.74-1.17,1.05-.78,1.58-1.99,1.58-3.64s-.57-2.91-1.7-3.6c-1.14-.69-2.91-1.03-5.32-1.03h-4.48Z"/><path class="cls-1" d="m102.14,142.62h-3.36l-3.43-7.79c-.93-2.09-1.52-3.35-1.78-3.78-.82.06-1.79.08-2.91.08l-4.45-.13v11.62h-2.97v-25.12h7.94c.92,0,1.73.02,2.43.07.71.05,1.41.13,2.11.24.7.12,1.31.28,1.82.49.51.21,1,.48,1.44.81.45.33.81.72,1.08,1.18s.49,1,.65,1.64c.16.63.24,1.35.24,2.14,0,1.57-.41,2.92-1.23,4.05-.82,1.13-1.99,1.91-3.5,2.35,0,.02.11.22.34.6.22.38.49.85.8,1.4.31.55.55,1.02.71,1.39l4.06,8.77Zm-15.92-22.52v8.4c.46,0,1.41.01,2.85.03,1.44.02,2.55.03,3.33.03,2.14,0,3.63-.36,4.47-1.07.84-.71,1.26-1.84,1.26-3.38,0-1.35-.4-2.36-1.21-3.02-.81-.66-2.16-.99-4.05-.99h-6.65Z"/><path class="cls-1" d="m128.97,142.62l-2.91-7.88h-9.91l-3.01,7.88h-2.96l9.54-24.89h2.97l9.25,24.89h-2.99Zm-3.85-10.31c-2.36-6.86-3.67-10.72-3.91-11.57l-4.08,11.57h7.99Z"/><path class="cls-1" d="m161.43,142.62h-3.29l-12.9-19.55-.84-1.16c.09,2.35.13,4.45.13,6.3v14.41h-2.72v-24.84h3.24l12.93,19.55.86,1.16c-.08-3.57-.12-5.64-.12-6.2v-14.51h2.7v24.84Z"/><path class="cls-1" d="m194.57,130.18c0,4.04-1.15,7.13-3.44,9.25-2.29,2.13-5.5,3.19-9.61,3.19h-7.37v-24.84h6.88c2.07,0,3.92.24,5.56.73,1.63.49,3.05,1.23,4.26,2.22,1.2.99,2.12,2.28,2.76,3.88.64,1.6.96,3.45.96,5.57Zm-3.11.08c0-3.47-.9-6-2.69-7.57-1.79-1.58-4.4-2.37-7.83-2.37h-3.9v19.76h4.38c3.27,0,5.76-.83,7.46-2.48,1.71-1.65,2.56-4.1,2.56-7.35Z"/></g><g><g><polygon class="cls-1" points="83.38 23.49 98.81 23.49 98.81 0 0 0 0 98.81 98.81 98.81 98.81 66.8 83.38 66.8 83.38 23.49"/><rect class="cls-1" x="107.76" y="23.49" width="27.89" height="43.31"/></g><path class="cls-1" d="m0,108.97v34.76h34.76v-34.76H0Zm25.94,25.95H8.81l17.13-17.13v17.13Z"/></g></g></g></svg>