<?xml version="1.0" encoding="UTF-8"?><svg id="Ebene_2" xmlns="http://www.w3.org/2000/svg" viewBox="0 0 227.25 140.63"><defs><style>.cls-1{fill:#0064aa;}</style></defs><g id="Object"><g><g><path class="cls-1" d="m122.48,118.39c.84,1.04,1.26,2.25,1.26,3.65,0,1.94-.65,3.47-1.94,4.59-1.3,1.12-3.18,1.68-5.64,1.68h-9.91v-23.08h9.71c2.33,0,4.12.51,5.38,1.54,1.25,1.02,1.88,2.46,1.88,4.32,0,1.44-.38,2.62-1.13,3.53-.75.92-1.74,1.51-2.96,1.8,1.39.28,2.51.94,3.35,1.98Zm-11.62-3.48h4.15c1.16,0,2.03-.26,2.63-.77.6-.51.9-1.25.9-2.21s-.3-1.7-.88-2.22c-.59-.52-1.49-.79-2.71-.79h-4.09v5.98Zm7.19,8.84c.65-.53.98-1.31.98-2.34s-.33-1.81-1-2.37c-.66-.56-1.61-.83-2.83-.83h-4.35v6.34h4.38c1.22,0,2.16-.27,2.81-.8Z"/><path class="cls-1" d="m142.28,128.31l-5.39-8.99h-2.03v8.99h-4.61v-23.08h8.79c2.68,0,4.72.65,6.13,1.96,1.41,1.31,2.11,3.03,2.11,5.17,0,1.74-.49,3.2-1.45,4.38-.97,1.18-2.37,1.96-4.2,2.35l5.75,9.22h-5.1Zm-7.42-12.16h3.79c2.64,0,3.96-1.17,3.96-3.5,0-1.11-.32-1.98-.96-2.6-.64-.62-1.64-.93-2.99-.93h-3.79v7.03Z"/><path class="cls-1" d="m167.71,123.67h-9.25l-1.63,4.64h-4.87l8.5-22.82h5.26l8.47,22.82h-4.87l-1.6-4.64Zm-1.24-3.5l-3.4-9.74-3.4,9.74h6.8Z"/><path class="cls-1" d="m199.49,128.31h-4.61l-10.33-15.69v15.69h-4.61v-23.08h4.61l10.33,15.82v-15.82h4.61v23.08Z"/><path class="cls-1" d="m225.81,122.79c-.96,1.74-2.35,3.1-4.17,4.07-1.82.97-3.98,1.46-6.49,1.46h-8.21v-23.08h8.21c2.51,0,4.67.47,6.49,1.42,1.82.95,3.21,2.29,4.17,4.02.96,1.73,1.44,3.75,1.44,6.07s-.48,4.3-1.44,6.05Zm-5.28-.56c1.36-1.31,2.04-3.14,2.04-5.49s-.68-4.22-2.04-5.53c-1.36-1.31-3.29-1.96-5.77-1.96h-3.2v14.94h3.2c2.48,0,4.41-.65,5.77-1.96Z"/></g><g><path class="cls-1" d="m74.49,104.3c-9.18,0-18.21-2.43-26.14-7.03l10.1-17.41c4.86,2.82,10.4,4.31,16.04,4.31,17.66,0,32.02-14.37,32.02-32.02s-14.37-32.02-32.02-32.02c-5.63,0-11.18,1.49-16.04,4.31l-10.1-17.41c7.92-4.6,16.96-7.03,26.14-7.03,28.75,0,52.15,23.39,52.15,52.15s-23.39,52.15-52.15,52.15Z"/><circle class="cls-1" cx="53.41" cy="88.65" r="21.22" transform="translate(-45.14 120.26) rotate(-76.72)"/><path class="cls-1" d="m52.06,140.63C23.36,140.63,0,117.27,0,88.57s23.36-52.06,52.06-52.06c15.59,0,30.24,6.9,40.17,18.94l-15.52,12.81c-6.1-7.39-15.08-11.63-24.65-11.63-17.61,0-31.94,14.33-31.94,31.94s14.33,31.94,31.94,31.94c8.91,0,17.18-3.58,23.28-10.07l14.66,13.78c-9.8,10.43-23.63,16.41-37.94,16.41Z"/></g></g></g></svg>